<?xml version="1.0" encoding="utf-8"?>
<!-- Generator: Adobe Illustrator 19.0.1, SVG Export Plug-In . SVG Version: 6.00 Build 0)  -->
<svg version="1.1" id="Capa_1" xmlns="http://www.w3.org/2000/svg" xmlns:xlink="http://www.w3.org/1999/xlink" x="0px" y="0px"
	 viewBox="0 0 792 612" style="enable-background:new 0 0 792 612;" xml:space="preserve">
<style type="text/css">
	.st0{fill:#FFFFFF;}
	.st1{fill:url(#SVGID_1_);}
	.st2{fill:url(#SVGID_2_);}
	.st3{fill:url(#SVGID_3_);}
	.st4{fill:url(#SVGID_4_);}
	.st5{fill:url(#SVGID_5_);}
	.st6{fill:url(#SVGID_6_);}
	.st7{fill:url(#SVGID_7_);}
	.st8{fill:url(#SVGID_8_);}
	.st9{fill:url(#SVGID_9_);}
	.st10{fill:url(#SVGID_10_);}
	.st11{fill:url(#SVGID_11_);}
	.st12{fill:url(#SVGID_12_);}
	.st13{fill:url(#SVGID_13_);}
	.st14{fill:url(#SVGID_14_);}
	.st15{fill:url(#SVGID_15_);}
	.st16{fill:url(#SVGID_16_);}
	.st17{fill:url(#SVGID_17_);}
	.st18{fill:url(#SVGID_18_);}
	.st19{fill:url(#SVGID_19_);}
	.st20{fill:url(#SVGID_20_);}
	.st21{fill:url(#SVGID_21_);}
	.st22{fill:url(#SVGID_22_);}
	.st23{fill:url(#SVGID_23_);}
	.st24{fill:url(#SVGID_24_);}
	.st25{fill:url(#SVGID_25_);}
	.st26{fill:url(#SVGID_26_);}
	.st27{fill:url(#SVGID_27_);}
</style>
<g>
	<g>
		<path class="st0" d="M157.7,470.2l8.7,14.4l-1.2,0.9c-0.9-0.9-1.6-1.3-2.1-1.3c-0.5,0-2.1,0.8-4.6,2.4c-5.3,3.4-9.7,5.6-13.3,6.8
			c-3.6,1.2-7.9,1.8-12.8,1.8c-9.9,0-18-2.6-24.3-7.8c-3.7-3-6.7-6.7-8.8-11.2c-2.5-5.1-3.7-10.7-3.7-16.9c0-8.4,2.2-15.7,6.6-21.8
			c6.7-9.3,16.7-13.9,30.2-13.9c4.9,0,9.2,0.6,12.7,1.7c3.5,1.1,8,3.4,13.3,6.8c2.5,1.6,4.1,2.4,4.6,2.4c0.5,0,1.3-0.4,2.1-1.3
			l1.2,0.9l-8.7,14.4l-1.2-0.9c0.1-0.5,0.1-1,0.1-1.4c0-1-0.4-1.9-1.1-2.8c-0.8-0.9-2.1-1.9-4.1-3.1c-5.4-3.4-11.1-5-17.2-5
			c-7.1,0-12.8,2-17.1,5.9c-5,4.6-7.5,10.7-7.5,18.1c0,7.5,2.5,13.5,7.5,18.1c4.2,3.9,9.9,5.9,17.1,5.9c6,0,11.8-1.7,17.2-5.1
			c2-1.2,3.3-2.3,4.1-3.1c0.8-0.9,1.1-1.8,1.1-2.8c0-0.4,0-0.8-0.1-1.3L157.7,470.2z"/>
		<path class="st0" d="M203.5,436c8.2,0,15,2.3,20.4,6.9c6.5,5.5,9.8,13.3,9.8,23.2c0,9.3-3.3,16.7-9.8,22.2
			c-5.4,4.6-12.2,6.9-20.3,6.9c-8.2,0-14.9-2.3-20.3-6.9c-6.5-5.5-9.8-13.1-9.8-22.7c0-9.7,3.3-17.3,9.8-22.7
			C188.7,438.4,195.4,436.1,203.5,436z M203.5,446.8c-5.3,0-9.6,1.9-12.9,5.6c-3.1,3.5-4.6,7.9-4.6,13.2c0,5.3,1.5,9.7,4.6,13.2
			c3.3,3.8,7.7,5.7,13,5.7c5.3,0,9.6-1.9,12.9-5.7c3.1-3.5,4.6-7.8,4.6-12.9c0-5.6-1.5-10.1-4.6-13.5
			C213.2,448.7,208.8,446.9,203.5,446.8z"/>
		<path class="st0" d="M255.6,456.6v32.2c0,1,0.2,1.9,0.7,2.4c0.4,0.6,1.2,1,2.3,1.4v1.4h-17v-1.4c1.1-0.3,1.8-0.7,2.3-1.3
			c0.4-0.6,0.7-1.4,0.7-2.4v-46.4c0-1-0.2-1.8-0.6-2.4c-0.4-0.5-1.2-1-2.3-1.4v-1.4h19.7v1.4c-1.3,0.4-2,1-2,2
			c0,0.8,0.5,1.8,1.5,2.8l27.5,30.2v-31.3c0-1-0.2-1.8-0.6-2.4c-0.4-0.6-1.2-1-2.3-1.3v-1.4h17v1.4c-1.1,0.3-1.9,0.8-2.3,1.3
			c-0.4,0.6-0.6,1.4-0.6,2.4v46.4c0,1,0.2,1.8,0.6,2.4c0.4,0.6,1.2,1,2.3,1.4v1.4h-18.4v-1.4c1.3-0.3,2-0.9,2-1.9
			c0-0.5-0.2-1-0.6-1.5c-0.4-0.5-1.2-1.5-2.5-3L255.6,456.6z"/>
		<path class="st0" d="M360.7,442.4l-6.2,13.2l-1.1-0.7c0-1.1-0.3-2-1-2.6c-1.7-1.7-4.3-3.1-7.7-4.3c-3.4-1.1-6.8-1.7-10.3-1.7
			c-3,0-5.6,0.5-7.9,1.4c-3.3,1.3-4.9,3.2-4.9,5.7c0,1.7,0.8,2.8,2.4,3.5c1.6,0.7,4.7,1.2,9.2,1.6l7.2,0.6
			c6.3,0.5,11.1,1.9,14.4,4.1c1.8,1.2,3.3,2.8,4.5,4.9c1.5,2.5,2.2,5.4,2.2,8.6c0,5.8-2.4,10.3-7.1,13.7c-4.5,3.2-10.6,4.8-18.2,4.8
			c-7.7,0-15.2-1.8-22.4-5.4c-0.5-0.2-0.9-0.4-1.2-0.4c-0.6,0-1.2,0.4-1.7,1.2l-1.1-0.5l5.3-13.9l1.1,0.5c0,0.2,0,0.3,0,0.4
			c0,0.9,0.3,1.6,0.9,2.2c1.5,1.5,4.2,2.8,7.9,3.9c3.8,1.1,7.5,1.6,11.1,1.6c3.2,0,6.1-0.5,8.7-1.4c3.2-1.1,4.8-3,4.8-5.6
			c0-2.1-1.1-3.5-3.3-4.3c-1.5-0.5-4.1-1-7.9-1.4l-7.2-0.7c-3.9-0.3-6.8-0.8-8.9-1.3c-2-0.5-3.8-1.3-5.4-2.4c-2-1.4-3.5-3.2-4.6-5.5
			c-1.1-2.3-1.6-4.9-1.6-7.7c0-6.2,2.4-11,7.2-14.2c4.4-3,9.8-4.5,16.3-4.5c3.5,0,6.8,0.4,9.8,1.3c3,0.9,6.7,2.4,10.9,4.5
			c1.3,0.6,2.1,1,2.6,1c0.5,0,1.1-0.4,1.9-1.1L360.7,442.4z"/>
		<path class="st0" d="M422.9,442.4v30.1c0,6.9-1.2,11.9-3.7,15.1c-3.9,5.1-11.4,7.7-22.3,7.7c-7.3,0-13.2-1.2-17.7-3.7
			c-3.2-1.8-5.5-4.3-6.6-7.7c-1.1-3-1.6-6.8-1.6-11.4v-30.1c0-1-0.2-1.8-0.6-2.4c-0.4-0.5-1.2-1-2.3-1.4v-1.4h18.1v1.4
			c-1.1,0.3-1.9,0.8-2.3,1.3c-0.4,0.6-0.6,1.4-0.6,2.4v27.3c0,3.2,0.3,5.6,0.8,7.3c0.5,1.7,1.4,3.1,2.6,4.2
			c2.5,2.2,6.1,3.3,10.9,3.3c4.7,0,8.4-1.1,10.9-3.3c1.2-1.1,2.1-2.5,2.6-4.2c0.5-1.7,0.7-4.1,0.7-7.3v-27.3c0-1-0.2-1.8-0.6-2.4
			c-0.4-0.5-1.2-1-2.3-1.4v-1.4h17.1v1.4c-1.1,0.3-1.9,0.8-2.3,1.3C423.2,440.6,422.9,441.4,422.9,442.4z"/>
		<path class="st0" d="M449.1,483.7h28.7c1,0,1.7-0.2,2.2-0.7c0.5-0.5,0.9-1.3,1.2-2.5h1.2v16.8h-1.2c-0.3-1.2-0.7-2.1-1.2-2.5
			c-0.5-0.5-1.2-0.7-2.2-0.7h-43.9v-1.4c1.1-0.3,1.8-0.7,2.3-1.3c0.4-0.6,0.7-1.4,0.7-2.4v-46.4c0-1-0.2-1.8-0.6-2.4
			c-0.4-0.5-1.2-1-2.3-1.4v-1.4H452v1.4c-1.1,0.3-1.9,0.8-2.3,1.3c-0.4,0.6-0.6,1.4-0.6,2.4V483.7z"/>
		<path class="st0" d="M516.1,447.5v41.3c0,1,0.2,1.8,0.6,2.4c0.4,0.6,1.2,1,2.3,1.4v1.4h-18.1v-1.4c1.1-0.3,1.8-0.7,2.3-1.3
			c0.4-0.6,0.7-1.4,0.7-2.4v-41.3h-15.1c-1,0-1.7,0.2-2.2,0.7c-0.5,0.5-0.9,1.3-1.2,2.5H484V434h1.2c0.3,1.2,0.7,2,1.2,2.5
			c0.5,0.5,1.2,0.7,2.2,0.7h42.6c1,0,1.7-0.2,2.2-0.7c0.5-0.5,0.9-1.3,1.2-2.5h1.2v16.8h-1.2c-0.3-1.2-0.7-2-1.2-2.5
			c-0.5-0.5-1.2-0.7-2.2-0.7H516.1z"/>
		<path class="st0" d="M556.4,442.4v46.4c0,1,0.2,1.8,0.6,2.4c0.4,0.6,1.2,1,2.3,1.4v1.4h-18.1v-1.4c1.1-0.3,1.8-0.7,2.3-1.3
			c0.4-0.6,0.7-1.4,0.7-2.4v-46.4c0-1-0.2-1.8-0.6-2.4c-0.4-0.5-1.2-1-2.3-1.4v-1.4h18.1v1.4c-1.1,0.3-1.9,0.8-2.3,1.3
			C556.6,440.6,556.4,441.4,556.4,442.4z"/>
		<path class="st0" d="M582.5,456.6v32.2c0,1,0.2,1.9,0.7,2.4c0.4,0.6,1.2,1,2.3,1.4v1.4h-17v-1.4c1.1-0.3,1.8-0.7,2.3-1.3
			c0.4-0.6,0.7-1.4,0.7-2.4v-46.4c0-1-0.2-1.8-0.6-2.4c-0.4-0.5-1.2-1-2.3-1.4v-1.4h19.7v1.4c-1.3,0.4-2,1-2,2
			c0,0.8,0.5,1.8,1.5,2.8l27.5,30.2v-31.3c0-1-0.2-1.8-0.6-2.4c-0.4-0.6-1.2-1-2.3-1.3v-1.4h17v1.4c-1.1,0.3-1.9,0.8-2.3,1.3
			c-0.4,0.6-0.6,1.4-0.6,2.4v46.4c0,1,0.2,1.8,0.6,2.4c0.4,0.6,1.2,1,2.3,1.4v1.4h-18.4v-1.4c1.3-0.3,2-0.9,2-1.9
			c0-0.5-0.2-1-0.6-1.5c-0.4-0.5-1.2-1.5-2.5-3L582.5,456.6z"/>
		<path class="st0" d="M684.4,472.1h-11.7c-1,0-1.7,0.2-2.2,0.7c-0.5,0.5-0.9,1.3-1.2,2.5h-1.2v-15.1h1.2c0.3,1.2,0.7,2,1.2,2.5
			c0.5,0.5,1.2,0.7,2.2,0.7h24.4v1.5c-1.1,0.3-1.8,0.8-2.3,1.5c-0.4,0.6-0.7,1.6-0.7,2.7v12c0,1,0.2,1.9,0.7,2.4
			c0.4,0.6,1.2,1,2.3,1.4v1.2c-9.9,6-19.8,9.1-29.6,9.1c-8.5,0-15.4-2.2-20.6-6.6c-2.8-2.4-5.1-5.4-6.9-9c-2-4.3-3.1-8.8-3.1-13.6
			c0-6.7,1.9-12.6,5.6-17.8c5.8-8,14.4-12.1,25.8-12.1c5,0,10.7,1.2,17,3.6c2.5,0.9,4,1.4,4.4,1.4c0.5,0,1.1-0.3,1.8-0.8l1.1,0.7
			l-6.1,14.3l-1.1-0.6c0-0.1,0-0.2,0-0.3c0-1.2-1.1-2.5-3.4-3.9c-4.2-2.5-8.7-3.7-13.5-3.7c-5.5,0-10.1,1.7-13.6,5
			c-3.7,3.5-5.6,8.2-5.6,14.2c0,5.6,1.7,10,5.1,13.4c3.5,3.4,8.4,5.1,14.7,5.1c6,0,11-1.2,15.2-3.7V472.1z"/>
	</g>
	<g>
		<g>
			<path class="st0" d="M364.5,136.3v-5.3c1.6-1.4,3.1-2.7,4.7-4c1.6-1.3,3.4-2.7,5.3-4.2c2-1.5,4-3,6.1-4.3
				c2.1-1.4,4.5-2.8,7.2-4.3c2.4,3.5,3.6,6.8,3.6,9.9c0,1.7-0.4,3.7-1.1,5.8c-0.7,2.1-1.7,4.5-3,7.3c-1.3,2.7-2.9,6.1-4.8,10.2
				c-5.1,11.3-8.9,20.6-11.4,27.9c-2.5,7.3-3.8,12.3-3.8,14.9c0,0.2,0.2,1.1,0.5,2.5c0.3,1.5,0.5,2.6,0.5,3.3c0,1.3-0.4,1.9-1.1,2
				c-0.7,0.1-1.7-0.2-3-0.8c-3.3-1.6-5.6-3.2-6.7-4.7c-1.1-1.5-1.7-3.4-1.7-5.7c0-4.2,1.5-10.7,4.6-19.5c1.6-4.5,3.4-8.9,5.4-13.3
				c2.1-4.4,4.4-8.9,6.9-13.4c2.5-4.5,4.9-8.7,7.2-12.5C375,130.2,369.9,132.9,364.5,136.3z"/>
			<path class="st0" d="M436.1,120.6l6.7,0.4c2.8,0.2,4.6,0.3,5.6,0.5c1,0.2,1.5,0.5,1.5,1.1c0,0.5-2,1.8-6,4.1
				c-4,2.2-7.4,4.1-10,5.8c-2.7,1.6-6.4,4.4-11.1,8.2c-4.8,3.8-9.5,8.4-14.2,13.8c-1,1.1-1.8,2.2-2.7,3.3c-0.8,1.1-1.5,2.2-2.2,3.1
				c-0.6,1-1,1.5-1.1,1.6c4.6-4.9,8.8-8.6,12.4-11c3.7-2.4,7.5-3.6,11.5-3.6c4.2,0,7.5,1.3,9.9,3.8c2.4,2.5,3.6,6,3.6,10.4
				c0,4.9-1.7,10.4-5.1,16.4c-3.4,6-7.7,11-12.9,15.2c-5.2,4.1-10.2,6.2-15,6.2c-3,0-5.9-1.2-8.8-3.5c-2.9-2.3-5.1-5.3-6.9-9
				c-1.7-3.7-2.6-7.5-2.6-11.4c0-5.3,1.9-11.4,5.7-18.2c3.8-6.9,9.3-13.7,16.4-20.3C418,130.8,426.4,125.2,436.1,120.6z
				 M404.3,189.3c2.3,0,5.5-1.6,9.7-4.7c4.2-3.1,7.8-6.9,11-11.4c3.2-4.5,4.8-8.8,4.8-12.8c0-3.6-1.4-5.4-4.1-5.4
				c-3.1,0-8,2.8-14.6,8.4c-4,3.4-6.9,6.4-8.7,9.2c-1.8,2.7-2.8,5.8-2.8,9.3c0,2.6,0.4,4.5,1.1,5.7
				C401.4,188.8,402.6,189.3,404.3,189.3z"/>
		</g>
		<g>
			<path class="st0" d="M334.3,286.1c0,0-29.5-21.1-48.6,9.4c0,0-9.6,17.4-35.1,2.1c0,0,41.2,40.8,47.7,14c0,0,1.3-11.6,11.5-16.8
				c0,0-10-0.5-20.3,11.6C289.5,306.4,296.6,273,334.3,286.1z"/>
			<path class="st0" d="M351.3,316C325.4,313.3,331,334,331,334c4.9,24-16.1,24.9-16.1,24.9c34.1,12.2,27.9-28.4,27.9-28.4
				c-2.6,8-5.3,7.5-5.3,7.5C332.4,318.1,351.3,316,351.3,316z"/>
			<path class="st0" d="M322.6,329.3c0,0,0.5-10.5,2.3-13.8c0,0-6.5,12-11,11.9c0,0-6.7-19.8,8.2-27c0,0,12.4-5.2,24,3.7
				c0,0-14.5-16.1-30.3-7.1c0,0-13.2,5.3-9.5,33c0,0-4.1,6.1-20.1,2.7C286.2,332.6,319.2,353.5,322.6,329.3z"/>
			<path class="st0" d="M555.6,262.9c0,0-67.1-27.2-110.9,16.5l30.8-32c0,0,7.3-7.6,18.9-7.7c0,0,62-7.2,73.9-15.9
				c0,0-8.3,10.9-22.2,16.5c0,0,47.9,9.9,42.5-72.4c0,0-5.8,42.6-63.3,59c0,0-34,9.4-39.8,2.9c0,0,50.4-3.4,76.5-58.4
				c0,0,3.2,20.8-27.6,46.6c0,0,67.8-33.9,29-98.8c0,0,0.6,33-13.7,54.7c0,0-0.5-10.6-6.8-17.2c0,0,7.8,35.5-24.6,54.7
				c0,0-18.5,12.5-52.8,12.8c0,0,13.3,5,0.1,16.6c0,0-6.4,7.1-8.7,12.2c0,0,6.5-22.9-9.3-39.2c0,0,8.6,24.5-13,43.7
				c0,0-6.2,5-12.8,13.3c-1-1.9-2.3-3.9-3.7-5.8c-2.4-3.3-5.3-6.7-8.9-10.1c14.8-27.1,0.5-42.7,0.5-42.7
				c2.7,16.8-7.4,27.7-13.3,32.4c-5.9-4.8-16-15.6-13.3-32.4c0,0-14.3,15.6,0.5,42.7c-3.6,3.4-6.5,6.8-8.9,10.1
				c-1.4,2-2.6,3.9-3.7,5.8c-6.6-8.4-12.8-13.3-12.8-13.3c-21.6-19.2-13-43.7-13-43.7C329.5,230,336,253,336,253
				c-2.2-5.1-8.7-12.2-8.7-12.2c-13.2-11.6,0.1-16.6,0.1-16.6c-34.3-0.2-52.8-12.8-52.8-12.8c-32.4-19.2-24.6-54.7-24.6-54.7
				c-6.3,6.6-6.8,17.2-6.8,17.2c-14.4-21.7-13.7-54.7-13.7-54.7c-38.7,64.9,29,98.8,29,98.8c-30.7-25.8-27.6-46.6-27.6-46.6
				c26.1,55,76.5,58.4,76.5,58.4c-5.8,6.4-39.8-2.9-39.8-2.9c-57.5-16.4-63.3-59-63.3-59c-5.4,82.4,42.5,72.4,42.5,72.4
				c-13.9-5.6-22.2-16.5-22.2-16.5c12,8.7,73.9,15.9,73.9,15.9c11.6,0.2,18.9,7.7,18.9,7.7l30.8,32
				c-43.8-43.7-110.9-16.5-110.9-16.5c-21.6,7.5-29.9-0.1-29.9-0.1c8.1,12.7,28.3,19,28.3,19c41.2,14.8,57.7-7.1,57.7-7.1
				c-19.1,9.8-42.2-4.8-42.2-4.8c52.5-30.8,98.1,19.5,98.1,19.5c40.4,37.7,19,63.9,19,63.9c23.3-24,21.5-47.3,13.5-65
				c1.3-2,2.7-3.8,4-5.3c3.2-3.6,6-5.5,6-5.5c1.6-1.7,3.2-3.3,4.6-4.9c1.4,1.6,3,3.2,4.6,4.9c0,0,2.8,1.8,6,5.5
				c1.3,1.5,2.7,3.2,4,5.3c-8,17.6-9.8,41,13.5,65c0,0-21.4-26.2,19-63.9c0,0,45.6-50.2,98.1-19.5c0,0-23.1,14.5-42.2,4.8
				c0,0,16.6,21.9,57.7,7.1c0,0,20.2-6.2,28.3-19C585.6,262.8,577.2,270.4,555.6,262.9z"/>
			<path class="st0" d="M507.1,295.5c-19.1-30.6-48.6-9.4-48.6-9.4c37.7-13.1,44.8,20.3,44.8,20.3C493,294.3,483,294.8,483,294.8
				c10.2,5.3,11.5,16.8,11.5,16.8c6.6,26.8,47.7-14,47.7-14C516.8,312.9,507.1,295.5,507.1,295.5z"/>
			<path class="st0" d="M461.9,334c0,0,5.6-20.7-20.3-18.1c0,0,18.9,2.1,13.8,22.1c0,0-2.7,0.5-5.3-7.5c0,0-6.2,40.6,27.9,28.4
				C477.9,358.9,457,358,461.9,334z"/>
			<path class="st0" d="M486.6,329.9c3.8-27.7-9.5-33-9.5-33c-15.8-9-30.3,7.1-30.3,7.1c11.6-8.9,24-3.7,24-3.7
				c14.9,7.2,8.2,27,8.2,27c-4.5,0.1-11-11.9-11-11.9c1.8,3.3,2.3,13.8,2.3,13.8c3.4,24.2,36.4,3.4,36.4,3.4
				C490.6,336,486.6,329.9,486.6,329.9z"/>
		</g>
		<g>
			<path class="st0" d="M263.2,269C263.2,269,263.2,269,263.2,269C263.2,269.1,263.2,269.1,263.2,269
				C263.2,269.1,263.2,269,263.2,269z"/>
			<path class="st0" d="M545.1,244.6c-2.2-0.5-3.9-2.4-4.1-4.6c-0.1-1.1,0.2-2.3,0.7-3.2c-2.4,0.5-4.9,1-7.7,1.5
				c-0.1,4.2-0.4,8.4-0.9,12.4c8.5,1.5,15.3,3.4,19.6,4.8c0.3-3.5,0.4-7,0.4-10.5C548.5,245.3,545.4,244.7,545.1,244.6z"/>
			<path class="st0" d="M522.1,290.7c-1,2.2-2.1,4.5-3.2,6.6c0.1,0,0.3,0.1,0.4,0.1c5.4,1.4,12.4-0.4,20.3-5.1
				c1.8-1.1,4.1-1,5.7,0.2c0.3-1,0.7-2,1-3.1c-5.3,1.2-10.5,1.7-15.4,1.8C527.8,291.4,524.9,291.2,522.1,290.7z"/>
			<path class="st0" d="M258.9,238.3c-2.8-0.5-5.4-1-7.7-1.5c0.6,0.9,0.8,2,0.7,3.2c-0.2,2.3-1.9,4.2-4.1,4.6
				c-0.3,0.1-3.4,0.7-8,0.4c0,3.5,0.2,7.1,0.4,10.5c4.3-1.4,11.1-3.4,19.6-4.8C259.3,246.6,259,242.5,258.9,238.3z"/>
			<path class="st0" d="M264.5,195.5C281.4,138.6,334.1,97,396.4,97s115.1,41.5,131.9,98.4c4.6-5.6,7.7-12.2,9.2-19.8
				c-25.3-52.4-79-88.5-141.1-88.5c-62.1,0-115.7,36.1-141.1,88.5C256.8,183.2,259.9,189.9,264.5,195.5z"/>
			<path class="st0" d="M530.2,313.9c-10.4,7.6-18.8,11.3-25.6,11.3c-1.5,0-2.9-0.2-4.2-0.5c-0.9,1-1.8,2-2.7,3
				c2.1,0,4.7-0.2,7.9-0.9c2.5-0.5,5,0.8,5.9,3.1c0.9,2.3,0.1,5-2,6.4c-0.2,0.1-5.3,3.3-11.8,5.9c-5.5,2.2-10.5,3.3-14.8,3.3
				c-1.5,0-3-0.1-4.4-0.4c-2.5,1.9-5,3.6-7.7,5.3c3.2,2.3,7,2.6,7.3,2.7c2.5,0.1,4.5,1.9,4.9,4.4c0.4,2.5-1.1,4.9-3.4,5.7
				c-4.8,1.7-9.3,2.6-13.2,2.6c-5.2,0-9.6-1.5-13.2-4.4c-0.3-0.3-0.7-0.6-1-0.9c-17.1,7.6-36,11.8-55.9,11.8s-38.8-4.2-55.9-11.8
				c-0.3,0.3-0.7,0.6-1,0.9c-3.6,3-8,4.4-13.2,4.4c-4,0-8.4-0.9-13.2-2.6c-2.4-0.8-3.8-3.2-3.4-5.7c0.4-2.5,2.4-4.3,4.9-4.4
				c0.3,0,4.1-0.4,7.3-2.7c-2.6-1.7-5.2-3.5-7.7-5.3c-1.4,0.3-2.8,0.4-4.4,0.4c-4.3,0-9.2-1.1-14.8-3.3c-6.5-2.6-11.6-5.7-11.8-5.9
				c-2.1-1.3-3-4-2-6.4c0.9-2.3,3.4-3.7,5.9-3.1c3.2,0.7,5.8,0.9,7.9,0.9c-0.9-1-1.8-2-2.7-3c-1.3,0.3-2.7,0.5-4.2,0.5
				c-6.8,0-15.2-3.7-25.6-11.3c-3.9-2.9-7.5-5.8-10.2-8.2c24,55.7,79.4,94.8,143.9,94.8s119.9-39,143.9-94.8
				C537.6,308.1,534.1,311,530.2,313.9z"/>
			<path class="st0" d="M529.7,269C529.7,269,529.7,269.1,529.7,269C529.7,269.1,529.7,269.1,529.7,269
				C529.7,269,529.7,269,529.7,269z"/>
			<path class="st0" d="M253.3,292.4c7.8,4.7,14.9,6.5,20.3,5.1c0.1,0,0.3-0.1,0.4-0.1c-1.1-2.2-2.2-4.4-3.2-6.6
				c-2.8,0.4-5.8,0.6-8.8,0.6c-4.9,0-10.1-0.6-15.4-1.8c0.3,1,0.6,2,1,3.1C249.2,291.4,251.5,291.3,253.3,292.4z"/>
		</g>
	</g>
	<g>
		<linearGradient id="SVGID_1_" gradientUnits="userSpaceOnUse" x1="105.9607" y1="485.9233" x2="161.9171" y2="429.9669">
			<stop  offset="0" style="stop-color:#001D7E"/>
			<stop  offset="0.2581" style="stop-color:#009BDB"/>
			<stop  offset="0.5054" style="stop-color:#001D7E"/>
			<stop  offset="0.7419" style="stop-color:#009BDB"/>
			<stop  offset="1" style="stop-color:#001D7E"/>
		</linearGradient>
		<path class="st1" d="M155.9,468.8l8.7,14.4l-1.2,0.9c-0.9-0.9-1.6-1.3-2.1-1.3c-0.5,0-2.1,0.8-4.6,2.4c-5.3,3.4-9.7,5.6-13.3,6.8
			c-3.6,1.2-7.9,1.8-12.8,1.8c-9.9,0-18-2.6-24.3-7.8c-3.7-3-6.7-6.7-8.8-11.2c-2.5-5.1-3.7-10.7-3.7-16.9c0-8.4,2.2-15.7,6.6-21.8
			c6.7-9.3,16.7-13.9,30.2-13.9c4.9,0,9.2,0.6,12.7,1.7c3.5,1.1,8,3.4,13.3,6.8c2.5,1.6,4.1,2.4,4.6,2.4c0.5,0,1.3-0.4,2.1-1.3
			l1.2,0.9l-8.7,14.4l-1.2-0.9c0.1-0.5,0.1-1,0.1-1.4c0-1-0.4-1.9-1.1-2.8c-0.8-0.9-2.1-1.9-4.1-3.1c-5.4-3.4-11.1-5-17.2-5
			c-7.1,0-12.8,2-17.1,5.9c-5,4.6-7.5,10.7-7.5,18.1c0,7.5,2.5,13.5,7.5,18.1c4.2,3.9,9.9,5.9,17.1,5.9c6,0,11.8-1.7,17.2-5.1
			c2-1.2,3.3-2.3,4.1-3.1c0.8-0.9,1.1-1.8,1.1-2.8c0-0.4,0-0.8-0.1-1.3L155.9,468.8z"/>
		<linearGradient id="SVGID_2_" gradientUnits="userSpaceOnUse" x1="180.2617" y1="485.7642" x2="223.419" y2="442.6069">
			<stop  offset="0" style="stop-color:#001D7E"/>
			<stop  offset="0.2581" style="stop-color:#009BDB"/>
			<stop  offset="0.5054" style="stop-color:#001D7E"/>
			<stop  offset="0.7419" style="stop-color:#009BDB"/>
			<stop  offset="1" style="stop-color:#001D7E"/>
		</linearGradient>
		<path class="st2" d="M201.8,434.6c8.2,0,15,2.3,20.4,6.9c6.5,5.5,9.8,13.3,9.8,23.2c0,9.3-3.3,16.7-9.8,22.2
			c-5.4,4.6-12.2,6.9-20.3,6.9c-8.2,0-14.9-2.3-20.3-6.9c-6.5-5.5-9.8-13.1-9.8-22.7c0-9.7,3.3-17.3,9.8-22.7
			C186.9,437,193.7,434.7,201.8,434.6z M201.8,445.3c-5.3,0-9.6,1.9-12.9,5.6c-3.1,3.5-4.6,7.9-4.6,13.2c0,5.3,1.5,9.7,4.6,13.2
			c3.3,3.8,7.7,5.7,13,5.7c5.3,0,9.6-1.9,12.9-5.7c3.1-3.5,4.6-7.8,4.6-12.9c0-5.6-1.5-10.1-4.6-13.5
			C211.4,447.3,207.1,445.4,201.8,445.3z"/>
		<linearGradient id="SVGID_3_" gradientUnits="userSpaceOnUse" x1="240.7846" y1="493.5833" x2="299.5707" y2="434.7972">
			<stop  offset="0" style="stop-color:#001D7E"/>
			<stop  offset="0.2581" style="stop-color:#009BDB"/>
			<stop  offset="0.5054" style="stop-color:#001D7E"/>
			<stop  offset="0.7419" style="stop-color:#009BDB"/>
			<stop  offset="1" style="stop-color:#001D7E"/>
		</linearGradient>
		<path class="st3" d="M253.9,455.2v32.2c0,1,0.2,1.9,0.7,2.4c0.4,0.6,1.2,1,2.3,1.4v1.4h-17v-1.4c1.1-0.3,1.8-0.7,2.3-1.3
			c0.4-0.6,0.7-1.4,0.7-2.4V441c0-1-0.2-1.8-0.6-2.4c-0.4-0.5-1.2-1-2.3-1.4v-1.4h19.7v1.4c-1.3,0.4-2,1-2,2c0,0.8,0.5,1.8,1.5,2.8
			l27.5,30.2V441c0-1-0.2-1.8-0.6-2.4c-0.4-0.6-1.2-1-2.3-1.3v-1.4h17v1.4c-1.1,0.3-1.9,0.8-2.3,1.3c-0.4,0.6-0.6,1.4-0.6,2.4v46.4
			c0,1,0.2,1.8,0.6,2.4c0.4,0.6,1.2,1,2.3,1.4v1.4h-18.4v-1.4c1.3-0.3,2-0.9,2-1.9c0-0.5-0.2-1-0.6-1.5c-0.4-0.5-1.2-1.5-2.5-3
			L253.9,455.2z"/>
		<linearGradient id="SVGID_4_" gradientUnits="userSpaceOnUse" x1="308.9589" y1="489.5795" x2="358.2649" y2="440.2735">
			<stop  offset="0" style="stop-color:#001D7E"/>
			<stop  offset="0.2581" style="stop-color:#009BDB"/>
			<stop  offset="0.5054" style="stop-color:#001D7E"/>
			<stop  offset="0.7419" style="stop-color:#009BDB"/>
			<stop  offset="1" style="stop-color:#001D7E"/>
		</linearGradient>
		<path class="st4" d="M358.9,440.9l-6.2,13.2l-1.1-0.7c0-1.1-0.3-2-1-2.6c-1.7-1.7-4.3-3.1-7.7-4.3c-3.4-1.1-6.8-1.7-10.3-1.7
			c-3,0-5.6,0.5-7.9,1.4c-3.3,1.3-4.9,3.2-4.9,5.7c0,1.7,0.8,2.8,2.4,3.5c1.6,0.7,4.7,1.2,9.2,1.6l7.2,0.6
			c6.3,0.5,11.1,1.9,14.4,4.1c1.8,1.2,3.3,2.8,4.5,4.9c1.5,2.5,2.2,5.4,2.2,8.6c0,5.8-2.4,10.3-7.1,13.7c-4.5,3.2-10.6,4.8-18.2,4.8
			c-7.7,0-15.2-1.8-22.4-5.4c-0.5-0.2-0.9-0.4-1.2-0.4c-0.6,0-1.2,0.4-1.7,1.2l-1.1-0.5l5.3-13.9l1.1,0.5c0,0.2,0,0.3,0,0.4
			c0,0.9,0.3,1.6,0.9,2.2c1.5,1.5,4.2,2.8,7.9,3.9c3.8,1.1,7.5,1.6,11.1,1.6c3.2,0,6.1-0.5,8.7-1.4c3.2-1.1,4.8-3,4.8-5.6
			c0-2.1-1.1-3.5-3.3-4.3c-1.5-0.5-4.1-1-7.9-1.4l-7.2-0.7c-3.9-0.3-6.8-0.8-8.9-1.3c-2-0.5-3.8-1.3-5.4-2.4c-2-1.4-3.5-3.2-4.6-5.5
			c-1.1-2.3-1.6-4.9-1.6-7.7c0-6.2,2.4-11,7.2-14.2c4.4-3,9.8-4.5,16.3-4.5c3.5,0,6.8,0.4,9.8,1.3c3,0.9,6.7,2.4,10.9,4.5
			c1.3,0.6,2.1,1,2.6,1c0.5,0,1.1-0.4,1.9-1.1L358.9,440.9z"/>
		<linearGradient id="SVGID_5_" gradientUnits="userSpaceOnUse" x1="369.7973" y1="483.1957" x2="420.6567" y2="432.3363">
			<stop  offset="0" style="stop-color:#001D7E"/>
			<stop  offset="0.2581" style="stop-color:#009BDB"/>
			<stop  offset="0.5054" style="stop-color:#001D7E"/>
			<stop  offset="0.7419" style="stop-color:#009BDB"/>
			<stop  offset="1" style="stop-color:#001D7E"/>
		</linearGradient>
		<path class="st5" d="M421.2,441V471c0,6.9-1.2,11.9-3.7,15.1c-3.9,5.1-11.4,7.7-22.3,7.7c-7.3,0-13.2-1.2-17.7-3.7
			c-3.2-1.8-5.5-4.3-6.6-7.7c-1.1-3-1.6-6.8-1.6-11.4V441c0-1-0.2-1.8-0.6-2.4c-0.4-0.5-1.2-1-2.3-1.4v-1.4h18.1v1.4
			c-1.1,0.3-1.9,0.8-2.3,1.3c-0.4,0.6-0.6,1.4-0.6,2.4v27.3c0,3.2,0.3,5.6,0.8,7.3c0.5,1.7,1.4,3.1,2.6,4.2
			c2.5,2.2,6.1,3.3,10.9,3.3c4.7,0,8.4-1.1,10.9-3.3c1.2-1.1,2.1-2.5,2.6-4.2c0.5-1.7,0.7-4.1,0.7-7.3V441c0-1-0.2-1.8-0.6-2.4
			c-0.4-0.5-1.2-1-2.3-1.4v-1.4h17.1v1.4c-1.1,0.3-1.9,0.8-2.3,1.3C421.4,439.1,421.2,439.9,421.2,441z"/>
		<linearGradient id="SVGID_6_" gradientUnits="userSpaceOnUse" x1="430.9254" y1="491.3468" x2="468.3796" y2="453.8925">
			<stop  offset="0" style="stop-color:#001D7E"/>
			<stop  offset="0.2581" style="stop-color:#009BDB"/>
			<stop  offset="0.5054" style="stop-color:#001D7E"/>
			<stop  offset="0.7419" style="stop-color:#009BDB"/>
			<stop  offset="1" style="stop-color:#001D7E"/>
		</linearGradient>
		<path class="st6" d="M447.4,482.3h28.7c1,0,1.7-0.2,2.2-0.7c0.5-0.5,0.9-1.3,1.2-2.5h1.2v16.8h-1.2c-0.3-1.2-0.7-2.1-1.2-2.5
			c-0.5-0.5-1.2-0.7-2.2-0.7h-43.9v-1.4c1.1-0.3,1.8-0.7,2.3-1.3c0.4-0.6,0.7-1.4,0.7-2.4V441c0-1-0.2-1.8-0.6-2.4
			c-0.4-0.5-1.2-1-2.3-1.4v-1.4h18.1v1.4c-1.1,0.3-1.9,0.8-2.3,1.3c-0.4,0.6-0.6,1.4-0.6,2.4V482.3z"/>
		<linearGradient id="SVGID_7_" gradientUnits="userSpaceOnUse" x1="484.4668" y1="477.8905" x2="531.9747" y2="430.3826">
			<stop  offset="0" style="stop-color:#001D7E"/>
			<stop  offset="0.2581" style="stop-color:#009BDB"/>
			<stop  offset="0.5054" style="stop-color:#001D7E"/>
			<stop  offset="0.7419" style="stop-color:#009BDB"/>
			<stop  offset="1" style="stop-color:#001D7E"/>
		</linearGradient>
		<path class="st7" d="M514.4,446.1v41.3c0,1,0.2,1.8,0.6,2.4c0.4,0.6,1.2,1,2.3,1.4v1.4h-18.1v-1.4c1.1-0.3,1.8-0.7,2.3-1.3
			c0.4-0.6,0.7-1.4,0.7-2.4v-41.3H487c-1,0-1.7,0.2-2.2,0.7c-0.5,0.5-0.9,1.3-1.2,2.5h-1.2v-16.8h1.2c0.3,1.2,0.7,2,1.2,2.5
			c0.5,0.5,1.2,0.7,2.2,0.7h42.6c1,0,1.7-0.2,2.2-0.7c0.5-0.5,0.9-1.3,1.2-2.5h1.2v16.8h-1.2c-0.3-1.2-0.7-2-1.2-2.5
			c-0.5-0.5-1.2-0.7-2.2-0.7H514.4z"/>
		<linearGradient id="SVGID_8_" gradientUnits="userSpaceOnUse" x1="529.7747" y1="482.9174" x2="567.2289" y2="445.4631">
			<stop  offset="0" style="stop-color:#001D7E"/>
			<stop  offset="0.2581" style="stop-color:#009BDB"/>
			<stop  offset="0.5054" style="stop-color:#001D7E"/>
			<stop  offset="0.7419" style="stop-color:#009BDB"/>
			<stop  offset="1" style="stop-color:#001D7E"/>
		</linearGradient>
		<path class="st8" d="M554.6,441v46.4c0,1,0.2,1.8,0.6,2.4c0.4,0.6,1.2,1,2.3,1.4v1.4h-18.1v-1.4c1.1-0.3,1.8-0.7,2.3-1.3
			c0.4-0.6,0.7-1.4,0.7-2.4V441c0-1-0.2-1.8-0.6-2.4c-0.4-0.5-1.2-1-2.3-1.4v-1.4h18.1v1.4c-1.1,0.3-1.9,0.8-2.3,1.3
			C554.9,439.1,554.6,439.9,554.6,441z"/>
		<linearGradient id="SVGID_9_" gradientUnits="userSpaceOnUse" x1="567.6155" y1="493.5833" x2="626.4017" y2="434.7972">
			<stop  offset="0" style="stop-color:#001D7E"/>
			<stop  offset="0.2581" style="stop-color:#009BDB"/>
			<stop  offset="0.5054" style="stop-color:#001D7E"/>
			<stop  offset="0.7419" style="stop-color:#009BDB"/>
			<stop  offset="1" style="stop-color:#001D7E"/>
		</linearGradient>
		<path class="st9" d="M580.7,455.2v32.2c0,1,0.2,1.9,0.7,2.4c0.4,0.6,1.2,1,2.3,1.4v1.4h-17v-1.4c1.1-0.3,1.8-0.7,2.3-1.3
			c0.4-0.6,0.7-1.4,0.7-2.4V441c0-1-0.2-1.8-0.6-2.4c-0.4-0.5-1.2-1-2.3-1.4v-1.4h19.7v1.4c-1.3,0.4-2,1-2,2c0,0.8,0.5,1.8,1.5,2.8
			l27.5,30.2V441c0-1-0.2-1.8-0.6-2.4c-0.4-0.6-1.2-1-2.3-1.3v-1.4h17v1.4c-1.1,0.3-1.9,0.8-2.3,1.3c-0.4,0.6-0.6,1.4-0.6,2.4v46.4
			c0,1,0.2,1.8,0.6,2.4c0.4,0.6,1.2,1,2.3,1.4v1.4H609v-1.4c1.3-0.3,2-0.9,2-1.9c0-0.5-0.2-1-0.6-1.5c-0.4-0.5-1.2-1.5-2.5-3
			L580.7,455.2z"/>
		<linearGradient id="SVGID_10_" gradientUnits="userSpaceOnUse" x1="645.7374" y1="487.8025" x2="692.5256" y2="441.0143">
			<stop  offset="0" style="stop-color:#001D7E"/>
			<stop  offset="0.2581" style="stop-color:#009BDB"/>
			<stop  offset="0.5054" style="stop-color:#001D7E"/>
			<stop  offset="0.7419" style="stop-color:#009BDB"/>
			<stop  offset="1" style="stop-color:#001D7E"/>
		</linearGradient>
		<path class="st10" d="M682.7,470.7H671c-1,0-1.7,0.2-2.2,0.7c-0.5,0.5-0.9,1.3-1.2,2.5h-1.2v-15.1h1.2c0.3,1.2,0.7,2,1.2,2.5
			c0.5,0.5,1.2,0.7,2.2,0.7h24.4v1.5c-1.1,0.3-1.8,0.8-2.3,1.5c-0.4,0.6-0.7,1.6-0.7,2.7v12c0,1,0.2,1.9,0.7,2.4
			c0.4,0.6,1.2,1,2.3,1.4v1.2c-9.9,6-19.8,9.1-29.6,9.1c-8.5,0-15.4-2.2-20.6-6.6c-2.8-2.4-5.1-5.4-6.9-9c-2-4.3-3.1-8.8-3.1-13.6
			c0-6.7,1.9-12.6,5.6-17.8c5.8-8,14.4-12.1,25.8-12.1c5,0,10.7,1.2,17,3.6c2.5,0.9,4,1.4,4.4,1.4c0.5,0,1.1-0.3,1.8-0.8l1.1,0.7
			l-6.1,14.3l-1.1-0.6c0-0.1,0-0.2,0-0.3c0-1.2-1.1-2.5-3.4-3.9c-4.2-2.5-8.7-3.7-13.5-3.7c-5.5,0-10.1,1.7-13.6,5
			c-3.7,3.5-5.6,8.2-5.6,14.2c0,5.6,1.7,10,5.1,13.4c3.5,3.4,8.4,5.1,14.7,5.1c6,0,11-1.2,15.2-3.7V470.7z"/>
	</g>
	<g>
		<g>
			<linearGradient id="SVGID_11_" gradientUnits="userSpaceOnUse" x1="345.8737" y1="181.3404" x2="400.3342" y2="126.8799">
				<stop  offset="0" style="stop-color:#001D7E"/>
				<stop  offset="0.2581" style="stop-color:#009BDB"/>
				<stop  offset="0.5054" style="stop-color:#001D7E"/>
				<stop  offset="0.7419" style="stop-color:#009BDB"/>
				<stop  offset="1" style="stop-color:#001D7E"/>
			</linearGradient>
			<path class="st11" d="M362.7,134.8v-5.3c1.6-1.4,3.1-2.7,4.7-4c1.6-1.3,3.4-2.7,5.3-4.2c2-1.5,4-3,6.1-4.3
				c2.1-1.4,4.5-2.8,7.2-4.3c2.4,3.5,3.6,6.8,3.6,9.9c0,1.7-0.4,3.7-1.1,5.8c-0.7,2.1-1.7,4.5-3,7.3c-1.3,2.7-2.9,6.1-4.8,10.2
				c-5.1,11.3-8.9,20.6-11.4,27.9c-2.5,7.3-3.8,12.3-3.8,14.9c0,0.2,0.2,1.1,0.5,2.5c0.3,1.5,0.5,2.6,0.5,3.3c0,1.3-0.4,1.9-1.1,2
				c-0.7,0.1-1.7-0.2-3-0.8c-3.3-1.6-5.6-3.2-6.7-4.7c-1.1-1.5-1.7-3.4-1.7-5.7c0-4.2,1.5-10.7,4.6-19.5c1.6-4.5,3.4-8.9,5.4-13.3
				c2.1-4.4,4.4-8.9,6.9-13.4c2.5-4.5,4.9-8.7,7.2-12.5C373.2,128.7,368.1,131.4,362.7,134.8z"/>
			<linearGradient id="SVGID_12_" gradientUnits="userSpaceOnUse" x1="390.1567" y1="188.7498" x2="453.1245" y2="125.782">
				<stop  offset="0" style="stop-color:#001D7E"/>
				<stop  offset="0.2581" style="stop-color:#009BDB"/>
				<stop  offset="0.5054" style="stop-color:#001D7E"/>
				<stop  offset="0.7419" style="stop-color:#009BDB"/>
				<stop  offset="1" style="stop-color:#001D7E"/>
			</linearGradient>
			<path class="st12" d="M434.3,119.1l6.7,0.4c2.8,0.2,4.6,0.3,5.6,0.5c1,0.2,1.5,0.5,1.5,1.1c0,0.5-2,1.8-6,4.1
				c-4,2.2-7.4,4.1-10,5.8c-2.7,1.6-6.4,4.4-11.1,8.2c-4.8,3.8-9.5,8.4-14.2,13.8c-1,1.1-1.8,2.2-2.7,3.3c-0.8,1.1-1.5,2.2-2.2,3.1
				c-0.6,1-1,1.5-1.1,1.6c4.6-4.9,8.8-8.6,12.4-11c3.7-2.4,7.5-3.6,11.5-3.6c4.2,0,7.5,1.3,9.9,3.8c2.4,2.5,3.6,6,3.6,10.4
				c0,4.9-1.7,10.4-5.1,16.4c-3.4,6-7.7,11-12.9,15.2c-5.2,4.1-10.2,6.2-15,6.2c-3,0-5.9-1.2-8.8-3.5c-2.9-2.3-5.1-5.3-6.9-9
				c-1.7-3.7-2.6-7.5-2.6-11.4c0-5.3,1.9-11.4,5.7-18.2c3.8-6.9,9.3-13.7,16.4-20.3C416.3,129.3,424.7,123.7,434.3,119.1z
				 M402.5,187.9c2.3,0,5.5-1.6,9.7-4.7c4.2-3.1,7.8-6.9,11-11.4c3.2-4.5,4.8-8.8,4.8-12.8c0-3.6-1.4-5.4-4.1-5.4
				c-3.1,0-8,2.8-14.6,8.4c-4,3.4-6.9,6.4-8.7,9.2c-1.8,2.7-2.8,5.8-2.8,9.3c0,2.6,0.4,4.5,1.1,5.7
				C399.7,187.3,400.9,187.9,402.5,187.9z"/>
		</g>
		<g>
			<linearGradient id="SVGID_13_" gradientUnits="userSpaceOnUse" x1="266.9017" y1="314.1862" x2="314.5182" y2="266.5696">
				<stop  offset="0" style="stop-color:#001D7E"/>
				<stop  offset="0.2581" style="stop-color:#009BDB"/>
				<stop  offset="0.5054" style="stop-color:#001D7E"/>
				<stop  offset="0.7419" style="stop-color:#009BDB"/>
				<stop  offset="1" style="stop-color:#001D7E"/>
			</linearGradient>
			<path class="st13" d="M332.6,284.6c0,0-29.5-21.1-48.6,9.4c0,0-9.6,17.4-35.1,2.1c0,0,41.2,40.8,47.7,14c0,0,1.3-11.6,11.5-16.8
				c0,0-10-0.5-20.3,11.6C287.8,304.9,294.9,271.5,332.6,284.6z"/>
			<linearGradient id="SVGID_14_" gradientUnits="userSpaceOnUse" x1="313.3153" y1="357.5872" x2="352.9846" y2="317.9179">
				<stop  offset="0" style="stop-color:#001D7E"/>
				<stop  offset="0.2581" style="stop-color:#009BDB"/>
				<stop  offset="0.5054" style="stop-color:#001D7E"/>
				<stop  offset="0.7419" style="stop-color:#009BDB"/>
				<stop  offset="1" style="stop-color:#001D7E"/>
			</linearGradient>
			<path class="st14" d="M349.6,314.5c-25.9-2.6-20.3,18.1-20.3,18.1c4.9,24-16.1,24.9-16.1,24.9C347.3,369.7,341,329,341,329
				c-2.6,8-5.3,7.5-5.3,7.5C330.6,316.6,349.6,314.5,349.6,314.5z"/>
			<linearGradient id="SVGID_15_" gradientUnits="userSpaceOnUse" x1="292.1211" y1="338.869" x2="336.3917" y2="294.5985">
				<stop  offset="0" style="stop-color:#001D7E"/>
				<stop  offset="0.2581" style="stop-color:#009BDB"/>
				<stop  offset="0.5054" style="stop-color:#001D7E"/>
				<stop  offset="0.7419" style="stop-color:#009BDB"/>
				<stop  offset="1" style="stop-color:#001D7E"/>
			</linearGradient>
			<path class="st15" d="M320.8,327.8c0,0,0.5-10.5,2.3-13.8c0,0-6.5,12-11,11.9c0,0-6.7-19.8,8.2-27c0,0,12.4-5.2,24,3.7
				c0,0-14.5-16.1-30.3-7.1c0,0-13.2,5.3-9.5,33c0,0-4.1,6.1-20.1,2.7C284.4,331.1,317.4,352,320.8,327.8z"/>
			<linearGradient id="SVGID_16_" gradientUnits="userSpaceOnUse" x1="269.523" y1="326.2269" x2="519.8225" y2="75.9274">
				<stop  offset="0" style="stop-color:#001D7E"/>
				<stop  offset="0.2581" style="stop-color:#009BDB"/>
				<stop  offset="0.5054" style="stop-color:#001D7E"/>
				<stop  offset="0.7419" style="stop-color:#009BDB"/>
				<stop  offset="1" style="stop-color:#001D7E"/>
			</linearGradient>
			<path class="st16" d="M553.9,261.4c0,0-67.1-27.2-110.9,16.5l30.8-32c0,0,7.3-7.6,18.9-7.7c0,0,62-7.2,73.9-15.9
				c0,0-8.3,10.9-22.2,16.5c0,0,47.9,9.9,42.5-72.4c0,0-5.8,42.6-63.3,59c0,0-34,9.4-39.8,2.9c0,0,50.4-3.4,76.5-58.4
				c0,0,3.2,20.8-27.6,46.6c0,0,67.8-33.9,29-98.8c0,0,0.6,33-13.7,54.7c0,0-0.5-10.6-6.8-17.2c0,0,7.8,35.5-24.6,54.7
				c0,0-18.5,12.5-52.8,12.8c0,0,13.3,5,0.1,16.6c0,0-6.4,7.1-8.7,12.2c0,0,6.5-22.9-9.3-39.2c0,0,8.6,24.5-13,43.7
				c0,0-6.2,5-12.8,13.3c-1-1.9-2.3-3.9-3.7-5.8c-2.4-3.3-5.3-6.7-8.9-10.1c14.8-27.1,0.5-42.7,0.5-42.7
				c2.7,16.8-7.4,27.7-13.3,32.4c-5.9-4.8-16-15.6-13.3-32.4c0,0-14.3,15.6,0.5,42.7c-3.6,3.4-6.5,6.8-8.9,10.1
				c-1.4,2-2.6,3.9-3.7,5.8c-6.6-8.4-12.8-13.3-12.8-13.3c-21.6-19.2-13-43.7-13-43.7c-15.7,16.2-9.3,39.2-9.3,39.2
				c-2.2-5.1-8.7-12.2-8.7-12.2c-13.2-11.6,0.1-16.6,0.1-16.6c-34.3-0.2-52.8-12.8-52.8-12.8c-32.4-19.2-24.6-54.7-24.6-54.7
				c-6.3,6.6-6.8,17.2-6.8,17.2c-14.4-21.7-13.7-54.7-13.7-54.7c-38.7,64.9,29,98.8,29,98.8c-30.7-25.8-27.6-46.6-27.6-46.6
				c26.1,55,76.5,58.4,76.5,58.4c-5.8,6.4-39.8-2.9-39.8-2.9c-57.5-16.4-63.3-59-63.3-59c-5.4,82.4,42.5,72.4,42.5,72.4
				c-13.9-5.6-22.2-16.5-22.2-16.5c12,8.7,73.9,15.9,73.9,15.9c11.6,0.2,18.9,7.7,18.9,7.7l30.8,32
				c-43.8-43.7-110.9-16.5-110.9-16.5c-21.6,7.5-29.9-0.1-29.9-0.1c8.1,12.7,28.3,19,28.3,19c41.2,14.8,57.7-7.1,57.7-7.1
				c-19.1,9.8-42.2-4.8-42.2-4.8c52.5-30.8,98.1,19.5,98.1,19.5c40.4,37.7,19,63.9,19,63.9c23.3-24,21.5-47.3,13.5-65
				c1.3-2,2.7-3.8,4-5.3c3.2-3.6,6-5.5,6-5.5c1.6-1.7,3.2-3.3,4.6-4.9c1.4,1.6,3,3.2,4.6,4.9c0,0,2.8,1.8,6,5.5
				c1.3,1.5,2.7,3.2,4,5.3c-8,17.6-9.8,41,13.5,65c0,0-21.4-26.2,19-63.9c0,0,45.6-50.2,98.1-19.5c0,0-23.1,14.5-42.2,4.8
				c0,0,16.6,21.9,57.7,7.1c0,0,20.2-6.2,28.3-19C583.8,261.3,575.4,268.9,553.9,261.4z"/>
			<linearGradient id="SVGID_17_" gradientUnits="userSpaceOnUse" x1="480.576" y1="308.4374" x2="516.6951" y2="272.3184">
				<stop  offset="0" style="stop-color:#001D7E"/>
				<stop  offset="0.2581" style="stop-color:#009BDB"/>
				<stop  offset="0.5054" style="stop-color:#001D7E"/>
				<stop  offset="0.7419" style="stop-color:#009BDB"/>
				<stop  offset="1" style="stop-color:#001D7E"/>
			</linearGradient>
			<path class="st17" d="M505.4,294.1c-19.1-30.6-48.6-9.4-48.6-9.4c37.7-13.1,44.8,20.3,44.8,20.3c-10.3-12.1-20.3-11.6-20.3-11.6
				c10.2,5.3,11.5,16.8,11.5,16.8c6.6,26.8,47.7-14,47.7-14C515,311.4,505.4,294.1,505.4,294.1z"/>
			<linearGradient id="SVGID_18_" gradientUnits="userSpaceOnUse" x1="446.1209" y1="347.8273" x2="466.2703" y2="327.6779">
				<stop  offset="0" style="stop-color:#001D7E"/>
				<stop  offset="0.2581" style="stop-color:#009BDB"/>
				<stop  offset="0.5054" style="stop-color:#001D7E"/>
				<stop  offset="0.7419" style="stop-color:#009BDB"/>
				<stop  offset="1" style="stop-color:#001D7E"/>
			</linearGradient>
			<path class="st18" d="M460.1,332.6c0,0,5.6-20.7-20.3-18.1c0,0,18.9,2.1,13.8,22.1c0,0-2.7,0.5-5.3-7.5c0,0-6.2,40.6,27.9,28.4
				C476.2,357.4,455.2,356.5,460.1,332.6z"/>
			<linearGradient id="SVGID_19_" gradientUnits="userSpaceOnUse" x1="463.8876" y1="327.9353" x2="486.2907" y2="305.5322">
				<stop  offset="0" style="stop-color:#001D7E"/>
				<stop  offset="0.2581" style="stop-color:#009BDB"/>
				<stop  offset="0.5054" style="stop-color:#001D7E"/>
				<stop  offset="0.7419" style="stop-color:#009BDB"/>
				<stop  offset="1" style="stop-color:#001D7E"/>
			</linearGradient>
			<path class="st19" d="M484.8,328.4c3.8-27.7-9.5-33-9.5-33c-15.8-9-30.3,7.1-30.3,7.1c11.6-8.9,24-3.7,24-3.7
				c14.9,7.2,8.2,27,8.2,27c-4.5,0.1-11-11.9-11-11.9c1.8,3.3,2.3,13.8,2.3,13.8c3.4,24.2,36.4,3.4,36.4,3.4
				C488.9,334.5,484.8,328.4,484.8,328.4z"/>
		</g>
		<g>
			<linearGradient id="SVGID_20_" gradientUnits="userSpaceOnUse" x1="261.4107" y1="267.6025" x2="261.4439" y2="267.5693">
				<stop  offset="0" style="stop-color:#001D7E"/>
				<stop  offset="0.2581" style="stop-color:#009BDB"/>
				<stop  offset="0.5054" style="stop-color:#001D7E"/>
				<stop  offset="0.7419" style="stop-color:#009BDB"/>
				<stop  offset="1" style="stop-color:#001D7E"/>
			</linearGradient>
			<path class="st20" d="M261.4,267.6C261.4,267.6,261.4,267.6,261.4,267.6C261.4,267.6,261.4,267.6,261.4,267.6
				C261.4,267.6,261.4,267.6,261.4,267.6z"/>
			<linearGradient id="SVGID_21_" gradientUnits="userSpaceOnUse" x1="534.5236" y1="252.4638" x2="547.3751" y2="239.6124">
				<stop  offset="0" style="stop-color:#001D7E"/>
				<stop  offset="0.2581" style="stop-color:#009BDB"/>
				<stop  offset="0.5054" style="stop-color:#001D7E"/>
				<stop  offset="0.7419" style="stop-color:#009BDB"/>
				<stop  offset="1" style="stop-color:#001D7E"/>
			</linearGradient>
			<path class="st21" d="M543.3,243.1c-2.2-0.5-3.9-2.4-4.1-4.6c-0.1-1.1,0.2-2.3,0.7-3.2c-2.4,0.5-4.9,1-7.7,1.5
				c-0.1,4.2-0.4,8.4-0.9,12.4c8.5,1.5,15.3,3.4,19.6,4.8c0.3-3.5,0.4-7,0.4-10.5C546.7,243.8,543.6,243.2,543.3,243.1z"/>
			<linearGradient id="SVGID_22_" gradientUnits="userSpaceOnUse" x1="521.6755" y1="300.4798" x2="539.2783" y2="282.877">
				<stop  offset="0" style="stop-color:#001D7E"/>
				<stop  offset="0.2581" style="stop-color:#009BDB"/>
				<stop  offset="0.5054" style="stop-color:#001D7E"/>
				<stop  offset="0.7419" style="stop-color:#009BDB"/>
				<stop  offset="1" style="stop-color:#001D7E"/>
			</linearGradient>
			<path class="st22" d="M520.3,289.3c-1,2.2-2.1,4.5-3.2,6.6c0.1,0,0.3,0.1,0.4,0.1c5.4,1.4,12.4-0.4,20.3-5.1
				c1.8-1.1,4.1-1,5.7,0.2c0.3-1,0.7-2,1-3.1c-5.3,1.2-10.5,1.7-15.4,1.8C526.1,289.9,523.1,289.7,520.3,289.3z"/>
			<linearGradient id="SVGID_23_" gradientUnits="userSpaceOnUse" x1="239.4038" y1="255.0304" x2="257.3886" y2="237.0456">
				<stop  offset="0" style="stop-color:#001D7E"/>
				<stop  offset="0.2581" style="stop-color:#009BDB"/>
				<stop  offset="0.5054" style="stop-color:#001D7E"/>
				<stop  offset="0.7419" style="stop-color:#009BDB"/>
				<stop  offset="1" style="stop-color:#001D7E"/>
			</linearGradient>
			<path class="st23" d="M257.1,236.8c-2.8-0.5-5.4-1-7.7-1.5c0.6,0.9,0.8,2,0.7,3.2c-0.2,2.3-1.9,4.2-4.1,4.6
				c-0.3,0.1-3.4,0.7-8,0.4c0,3.5,0.2,7.1,0.4,10.5c4.3-1.4,11.1-3.4,19.6-4.8C257.6,245.2,257.3,241,257.1,236.8z"/>
			<linearGradient id="SVGID_24_" gradientUnits="userSpaceOnUse" x1="318.3965" y1="249.6423" x2="470.949" y2="97.0899">
				<stop  offset="0" style="stop-color:#001D7E"/>
				<stop  offset="0.2581" style="stop-color:#009BDB"/>
				<stop  offset="0.5054" style="stop-color:#001D7E"/>
				<stop  offset="0.7419" style="stop-color:#009BDB"/>
				<stop  offset="1" style="stop-color:#001D7E"/>
			</linearGradient>
			<path class="st24" d="M262.8,194c16.9-56.9,69.5-98.4,131.9-98.4s115.1,41.5,131.9,98.4c4.6-5.6,7.7-12.2,9.2-19.8
				c-25.3-52.4-79-88.5-141.1-88.5c-62.1,0-115.7,36.1-141.1,88.5C255.1,181.8,258.1,188.4,262.8,194z"/>
			<linearGradient id="SVGID_25_" gradientUnits="userSpaceOnUse" x1="318.7773" y1="387.9641" x2="470.5682" y2="236.1732">
				<stop  offset="0" style="stop-color:#001D7E"/>
				<stop  offset="0.2581" style="stop-color:#009BDB"/>
				<stop  offset="0.5054" style="stop-color:#001D7E"/>
				<stop  offset="0.7419" style="stop-color:#009BDB"/>
				<stop  offset="1" style="stop-color:#001D7E"/>
			</linearGradient>
			<path class="st25" d="M528.4,312.4c-10.4,7.6-18.8,11.3-25.6,11.3c-1.5,0-2.9-0.2-4.2-0.5c-0.9,1-1.8,2-2.7,3
				c2.1,0,4.7-0.2,7.9-0.9c2.5-0.5,5,0.8,5.9,3.1c0.9,2.3,0.1,5-2,6.4c-0.2,0.1-5.3,3.3-11.8,5.9c-5.5,2.2-10.5,3.3-14.8,3.3
				c-1.5,0-3-0.1-4.4-0.4c-2.5,1.9-5,3.6-7.7,5.3c3.2,2.3,7,2.6,7.3,2.7c2.5,0.1,4.5,1.9,4.9,4.4c0.4,2.5-1.1,4.9-3.4,5.7
				c-4.8,1.7-9.3,2.6-13.2,2.6c-5.2,0-9.6-1.5-13.2-4.4c-0.3-0.3-0.7-0.6-1-0.9c-17.1,7.6-36,11.8-55.9,11.8s-38.8-4.2-55.9-11.8
				c-0.3,0.3-0.7,0.6-1,0.9c-3.6,3-8,4.4-13.2,4.4c-4,0-8.4-0.9-13.2-2.6c-2.4-0.8-3.8-3.2-3.4-5.7c0.4-2.5,2.4-4.3,4.9-4.4
				c0.3,0,4.1-0.4,7.3-2.7c-2.6-1.7-5.2-3.5-7.7-5.3c-1.4,0.3-2.8,0.4-4.4,0.4c-4.3,0-9.2-1.1-14.8-3.3c-6.5-2.6-11.6-5.7-11.8-5.9
				c-2.1-1.3-3-4-2-6.4c0.9-2.3,3.4-3.7,5.9-3.1c3.2,0.7,5.8,0.9,7.9,0.9c-0.9-1-1.8-2-2.7-3c-1.3,0.3-2.7,0.5-4.2,0.5
				c-6.8,0-15.2-3.7-25.6-11.3c-3.9-2.9-7.5-5.8-10.2-8.2c24,55.7,79.4,94.8,143.9,94.8s119.9-39,143.9-94.8
				C535.9,306.6,532.3,309.6,528.4,312.4z"/>
			<linearGradient id="SVGID_26_" gradientUnits="userSpaceOnUse" x1="527.892" y1="267.6364" x2="527.9601" y2="267.5683">
				<stop  offset="0" style="stop-color:#001D7E"/>
				<stop  offset="0.2581" style="stop-color:#009BDB"/>
				<stop  offset="0.5054" style="stop-color:#001D7E"/>
				<stop  offset="0.7419" style="stop-color:#009BDB"/>
				<stop  offset="1" style="stop-color:#001D7E"/>
			</linearGradient>
			<path class="st26" d="M527.9,267.6C527.9,267.6,527.9,267.6,527.9,267.6C527.9,267.6,528,267.6,527.9,267.6
				C528,267.6,527.9,267.6,527.9,267.6z"/>
			<linearGradient id="SVGID_27_" gradientUnits="userSpaceOnUse" x1="252.5856" y1="297.9615" x2="265.1521" y2="285.3949">
				<stop  offset="0" style="stop-color:#001D7E"/>
				<stop  offset="0.2581" style="stop-color:#009BDB"/>
				<stop  offset="0.5054" style="stop-color:#001D7E"/>
				<stop  offset="0.7419" style="stop-color:#009BDB"/>
				<stop  offset="1" style="stop-color:#001D7E"/>
			</linearGradient>
			<path class="st27" d="M251.5,290.9c7.8,4.7,14.9,6.5,20.3,5.1c0.1,0,0.3-0.1,0.4-0.1c-1.1-2.2-2.2-4.4-3.2-6.6
				c-2.8,0.4-5.8,0.6-8.8,0.6c-4.9,0-10.1-0.6-15.4-1.8c0.3,1,0.6,2,1,3.1C247.4,290,249.7,289.8,251.5,290.9z"/>
		</g>
	</g>
</g>
</svg>
