<?xml version="1.0" encoding="utf-8"?>
<!-- Generator: Adobe Illustrator 19.0.1, SVG Export Plug-In . SVG Version: 6.00 Build 0)  -->
<svg version="1.1" id="Capa_1" xmlns="http://www.w3.org/2000/svg" xmlns:xlink="http://www.w3.org/1999/xlink" x="0px" y="0px"
	 viewBox="0 0 792 612" style="enable-background:new 0 0 792 612;" xml:space="preserve">
<style type="text/css">
	.st0{fill:#FFFFFF;}
	.st1{fill:url(#SVGID_1_);}
	.st2{fill:url(#SVGID_2_);}
	.st3{fill:url(#SVGID_3_);}
	.st4{fill:url(#SVGID_4_);}
	.st5{fill:url(#SVGID_5_);}
	.st6{fill:url(#SVGID_6_);}
	.st7{fill:url(#SVGID_7_);}
	.st8{fill:url(#SVGID_8_);}
	.st9{fill:url(#SVGID_9_);}
	.st10{fill:url(#SVGID_10_);}
	.st11{fill:url(#SVGID_11_);}
	.st12{fill:url(#SVGID_12_);}
	.st13{fill:url(#SVGID_13_);}
	.st14{fill:url(#SVGID_14_);}
	.st15{fill:url(#SVGID_15_);}
	.st16{fill:url(#SVGID_16_);}
	.st17{fill:url(#SVGID_17_);}
	.st18{fill:url(#SVGID_18_);}
	.st19{fill:url(#SVGID_19_);}
	.st20{fill:url(#SVGID_20_);}
	.st21{fill:url(#SVGID_21_);}
	.st22{fill:url(#SVGID_22_);}
	.st23{fill:url(#SVGID_23_);}
	.st24{fill:url(#SVGID_24_);}
	.st25{fill:url(#SVGID_25_);}
	.st26{fill:url(#SVGID_26_);}
	.st27{fill:url(#SVGID_27_);}
</style>
<g>
	<g>
		<path class="st0" d="M268.6,307.7l7.9,13.1l-1.1,0.8c-0.8-0.8-1.4-1.2-1.9-1.2c-0.5,0-1.9,0.7-4.2,2.2c-4.8,3-8.8,5.1-12.1,6.2
			c-3.3,1.1-7.1,1.6-11.6,1.6c-9,0-16.3-2.4-22.1-7.1c-3.4-2.7-6.1-6.1-8-10.2c-2.3-4.6-3.4-9.8-3.4-15.3c0-7.6,2-14.2,6-19.9
			c6.1-8.4,15.2-12.7,27.5-12.7c4.5,0,8.4,0.5,11.6,1.6c3.2,1,7.3,3.1,12.1,6.2c2.3,1.4,3.7,2.2,4.2,2.2c0.5,0,1.1-0.4,1.9-1.2
			l1.1,0.8l-7.9,13.1l-1.1-0.8c0.1-0.5,0.1-0.9,0.1-1.2c0-0.9-0.3-1.7-1-2.5c-0.7-0.8-1.9-1.7-3.7-2.8c-4.9-3.1-10.1-4.6-15.6-4.6
			c-6.5,0-11.7,1.8-15.5,5.4c-4.6,4.2-6.8,9.7-6.8,16.5c0,6.8,2.3,12.3,6.8,16.5c3.9,3.6,9,5.4,15.5,5.4c5.5,0,10.7-1.5,15.6-4.6
			c1.8-1.1,3-2.1,3.7-2.8c0.7-0.8,1-1.6,1-2.5c0-0.3,0-0.7-0.1-1.2L268.6,307.7z"/>
		<path class="st0" d="M310.3,276.6c7.4,0,13.6,2.1,18.6,6.3c5.9,5,8.9,12.1,8.9,21.1c0,8.4-3,15.2-8.9,20.2
			c-4.9,4.2-11.1,6.3-18.5,6.3c-7.4,0-13.6-2.1-18.5-6.3c-5.9-5-8.9-11.9-8.9-20.6c0-8.8,3-15.7,8.9-20.6
			C296.8,278.8,302.9,276.7,310.3,276.6z M310.3,286.4c-4.8,0-8.7,1.7-11.8,5.1c-2.8,3.2-4.2,7.2-4.2,12c0,4.8,1.4,8.8,4.2,12
			c3,3.4,7,5.2,11.8,5.2c4.8,0,8.7-1.7,11.8-5.2c2.8-3.2,4.2-7.1,4.2-11.8c0-5.1-1.4-9.2-4.2-12.3
			C319.1,288.2,315.1,286.5,310.3,286.4z"/>
		<path class="st0" d="M357.7,295.3v29.3c0,1,0.2,1.7,0.6,2.2c0.4,0.5,1.1,0.9,2.1,1.2v1.3h-15.5V328c1-0.3,1.7-0.7,2.1-1.2
			c0.4-0.5,0.6-1.3,0.6-2.2v-42.2c0-1-0.2-1.7-0.6-2.2c-0.4-0.5-1.1-0.9-2.1-1.2v-1.3h17.9v1.3c-1.2,0.3-1.8,0.9-1.8,1.8
			c0,0.7,0.4,1.6,1.3,2.6l25,27.5v-28.4c0-1-0.2-1.7-0.6-2.2c-0.4-0.5-1.1-0.9-2.1-1.2v-1.3h15.5v1.3c-1,0.3-1.7,0.7-2.1,1.2
			c-0.4,0.5-0.6,1.2-0.6,2.2v42.2c0,1,0.2,1.7,0.6,2.2c0.4,0.5,1.1,0.9,2.1,1.3v1.3h-16.7V328c1.2-0.3,1.8-0.8,1.8-1.7
			c0-0.4-0.2-0.9-0.5-1.3c-0.3-0.5-1.1-1.4-2.3-2.7L357.7,295.3z"/>
		<path class="st0" d="M453.2,282.4l-5.6,12l-1-0.6c0-1-0.3-1.8-0.9-2.4c-1.6-1.6-3.9-2.9-7-3.9c-3.1-1-6.2-1.5-9.4-1.5
			c-2.7,0-5.1,0.4-7.2,1.2c-3,1.2-4.5,2.9-4.5,5.2c0,1.5,0.7,2.6,2.2,3.2c1.4,0.6,4.2,1.1,8.4,1.5l6.6,0.6
			c5.8,0.5,10.1,1.7,13.1,3.7c1.7,1.1,3,2.6,4.1,4.4c1.4,2.3,2,4.9,2,7.8c0,5.3-2.1,9.4-6.4,12.4c-4.1,2.9-9.6,4.4-16.6,4.4
			c-7,0-13.8-1.6-20.4-4.9c-0.4-0.2-0.8-0.3-1.1-0.3c-0.6,0-1.1,0.4-1.5,1.1l-1-0.5l4.8-12.6l1,0.5c0,0.2,0,0.3,0,0.4
			c0,0.8,0.3,1.5,0.8,2c1.4,1.4,3.8,2.5,7.2,3.5c3.4,1,6.8,1.5,10.1,1.5c2.9,0,5.6-0.4,7.9-1.3c2.9-1,4.3-2.7,4.3-5.1
			c0-1.9-1-3.2-3-3.9c-1.3-0.5-3.7-0.9-7.2-1.2l-6.5-0.6c-3.5-0.3-6.2-0.7-8.1-1.2c-1.9-0.5-3.5-1.2-4.9-2.2c-1.8-1.2-3.2-2.9-4.2-5
			c-1-2.1-1.5-4.4-1.5-7c0-5.7,2.2-10,6.6-12.9c4-2.7,8.9-4.1,14.8-4.1c3.2,0,6.2,0.4,8.9,1.2c2.8,0.8,6.1,2.2,9.9,4.1
			c1.1,0.6,1.9,0.9,2.4,0.9c0.4,0,1-0.3,1.7-1L453.2,282.4z"/>
		<path class="st0" d="M509.8,282.4v27.3c0,6.2-1.1,10.8-3.3,13.7c-3.6,4.6-10.3,7-20.3,7c-6.6,0-12-1.1-16.1-3.4
			c-2.9-1.6-5-3.9-6-7c-1-2.8-1.5-6.2-1.5-10.4v-27.3c0-1-0.2-1.7-0.6-2.2c-0.4-0.5-1.1-0.9-2.1-1.2v-1.3h16.5v1.3
			c-1,0.3-1.7,0.7-2.1,1.2c-0.4,0.5-0.6,1.2-0.6,2.2v24.8c0,2.9,0.2,5.1,0.7,6.6c0.5,1.5,1.3,2.8,2.4,3.8c2.3,2,5.6,3,9.9,3
			c4.3,0,7.6-1,9.9-3c1.1-1,1.9-2.2,2.3-3.8c0.4-1.5,0.7-3.7,0.7-6.6v-24.8c0-1-0.2-1.7-0.6-2.2c-0.4-0.5-1.1-0.9-2.1-1.2v-1.3h15.5
			v1.3c-1,0.3-1.7,0.7-2.1,1.2C510,280.7,509.8,281.5,509.8,282.4z"/>
		<path class="st0" d="M533.6,320h26.1c0.9,0,1.6-0.2,2-0.6c0.4-0.4,0.8-1.2,1.1-2.3h1.1v15.3h-1.1c-0.3-1.1-0.6-1.9-1.1-2.3
			c-0.5-0.4-1.1-0.6-2-0.6h-40V328c1-0.3,1.7-0.7,2.1-1.2c0.4-0.5,0.6-1.3,0.6-2.2v-42.2c0-1-0.2-1.7-0.6-2.2
			c-0.4-0.5-1.1-0.9-2.1-1.2v-1.3h16.5v1.3c-1,0.3-1.7,0.7-2.1,1.2c-0.4,0.5-0.6,1.2-0.6,2.2V320z"/>
		<path class="st0" d="M594.5,287.1v37.5c0,1,0.2,1.7,0.6,2.2c0.4,0.5,1.1,0.9,2.1,1.3v1.3h-16.5V328c1-0.3,1.7-0.7,2.1-1.2
			c0.4-0.5,0.6-1.3,0.6-2.2v-37.6h-13.8c-0.9,0-1.6,0.2-2,0.7c-0.5,0.4-0.8,1.2-1.1,2.3h-1.1v-15.3h1.1c0.3,1.1,0.6,1.8,1.1,2.3
			c0.5,0.4,1.1,0.7,2,0.7h38.7c0.9,0,1.6-0.2,2-0.6c0.5-0.4,0.8-1.2,1.1-2.3h1.1V290h-1.1c-0.3-1.1-0.6-1.9-1.1-2.3
			c-0.5-0.4-1.1-0.7-2-0.7H594.5z"/>
		<path class="st0" d="M631.1,282.4v42.2c0,1,0.2,1.7,0.6,2.2c0.4,0.5,1.1,0.9,2.1,1.3v1.3h-16.5V328c1-0.3,1.7-0.7,2.1-1.2
			c0.4-0.5,0.6-1.3,0.6-2.2v-42.2c0-1-0.2-1.7-0.6-2.2c-0.4-0.5-1.1-0.9-2.1-1.2v-1.3h16.5v1.3c-1,0.3-1.7,0.7-2.1,1.2
			C631.3,280.7,631.1,281.5,631.1,282.4z"/>
		<path class="st0" d="M654.8,295.3v29.3c0,1,0.2,1.7,0.6,2.2c0.4,0.5,1.1,0.9,2.1,1.2v1.3H642V328c1-0.3,1.7-0.7,2.1-1.2
			c0.4-0.5,0.6-1.3,0.6-2.2v-42.2c0-1-0.2-1.7-0.6-2.2c-0.4-0.5-1.1-0.9-2.1-1.2v-1.3h17.9v1.3c-1.2,0.3-1.8,0.9-1.8,1.8
			c0,0.7,0.4,1.6,1.3,2.6l25,27.5v-28.4c0-1-0.2-1.7-0.6-2.2c-0.4-0.5-1.1-0.9-2.1-1.2v-1.3h15.5v1.3c-1,0.3-1.7,0.7-2.1,1.2
			c-0.4,0.5-0.6,1.2-0.6,2.2v42.2c0,1,0.2,1.7,0.6,2.2c0.4,0.5,1.1,0.9,2.1,1.3v1.3h-16.7V328c1.2-0.3,1.8-0.8,1.8-1.7
			c0-0.4-0.2-0.9-0.5-1.3c-0.3-0.5-1.1-1.4-2.3-2.7L654.8,295.3z"/>
		<path class="st0" d="M747.6,309.4h-10.6c-0.9,0-1.6,0.2-2,0.6c-0.5,0.4-0.8,1.2-1.1,2.3h-1.1v-13.7h1.1c0.3,1.1,0.6,1.9,1.1,2.3
			c0.5,0.4,1.1,0.7,2,0.7h22.2v1.3c-1,0.3-1.7,0.8-2.1,1.3c-0.4,0.6-0.6,1.4-0.6,2.5v10.9c0,1,0.2,1.7,0.6,2.2
			c0.4,0.5,1.1,0.9,2.1,1.2v1.1c-9,5.5-18,8.2-26.9,8.2c-7.7,0-14-2-18.8-6c-2.6-2.2-4.7-4.9-6.3-8.2c-1.9-3.9-2.8-8-2.8-12.4
			c0-6.1,1.7-11.5,5.1-16.2c5.3-7.3,13.1-11,23.4-11c4.5,0,9.7,1.1,15.5,3.3c2.3,0.9,3.7,1.3,4,1.3c0.5,0,1-0.2,1.7-0.7l1,0.6
			l-5.6,13l-1-0.6c0-0.1,0-0.2,0-0.3c0-1.1-1-2.3-3.1-3.5c-3.8-2.2-7.9-3.4-12.2-3.4c-5,0-9.1,1.5-12.4,4.6
			c-3.4,3.2-5.1,7.5-5.1,12.9c0,5.1,1.5,9.1,4.6,12.2c3.2,3.1,7.6,4.7,13.3,4.7c5.4,0,10-1.1,13.8-3.4V309.4z"/>
	</g>
	<g>
		<g>
			<path class="st0" d="M111.4,258.9v-1.8c0.5-0.5,1-0.9,1.6-1.3c0.5-0.4,1.1-0.9,1.8-1.4c0.6-0.5,1.3-1,2-1.4
				c0.7-0.5,1.5-0.9,2.4-1.4c0.8,1.1,1.2,2.2,1.2,3.3c0,0.6-0.1,1.2-0.4,1.9c-0.2,0.7-0.6,1.5-1,2.4c-0.4,0.9-0.9,2-1.6,3.4
				c-1.7,3.7-2.9,6.8-3.8,9.2c-0.8,2.4-1.2,4.1-1.2,4.9c0,0.1,0,0.3,0.1,0.8c0.1,0.5,0.1,0.8,0.1,1.1c0,0.4-0.1,0.6-0.4,0.7
				c-0.2,0-0.6-0.1-1-0.3c-1.1-0.5-1.8-1.1-2.2-1.5c-0.4-0.5-0.6-1.1-0.6-1.9c0-1.4,0.5-3.5,1.5-6.4c0.5-1.5,1.1-2.9,1.8-4.4
				c0.7-1.5,1.4-2.9,2.3-4.4c0.8-1.5,1.6-2.9,2.4-4.1C114.9,256.9,113.2,257.7,111.4,258.9z"/>
			<path class="st0" d="M135,253.7l2.2,0.1c0.9,0.1,1.5,0.1,1.8,0.2c0.3,0.1,0.5,0.2,0.5,0.4c0,0.2-0.7,0.6-2,1.3
				c-1.3,0.7-2.4,1.4-3.3,1.9c-0.9,0.5-2.1,1.4-3.7,2.7c-1.6,1.3-3.1,2.8-4.7,4.5c-0.3,0.4-0.6,0.7-0.9,1.1c-0.3,0.4-0.5,0.7-0.7,1
				c-0.2,0.3-0.3,0.5-0.4,0.5c1.5-1.6,2.9-2.8,4.1-3.6c1.2-0.8,2.5-1.2,3.8-1.2c1.4,0,2.5,0.4,3.3,1.2c0.8,0.8,1.2,2,1.2,3.4
				c0,1.6-0.6,3.4-1.7,5.4c-1.1,2-2.5,3.6-4.2,5c-1.7,1.4-3.4,2-5,2c-1,0-1.9-0.4-2.9-1.2c-0.9-0.8-1.7-1.8-2.3-3
				c-0.6-1.2-0.9-2.5-0.9-3.7c0-1.7,0.6-3.7,1.9-6c1.2-2.3,3-4.5,5.4-6.7C129.1,257,131.8,255.2,135,253.7z M124.5,276.3
				c0.8,0,1.8-0.5,3.2-1.5c1.4-1,2.6-2.3,3.6-3.8c1-1.5,1.6-2.9,1.6-4.2c0-1.2-0.4-1.8-1.3-1.8c-1,0-2.6,0.9-4.8,2.8
				c-1.3,1.1-2.3,2.1-2.9,3c-0.6,0.9-0.9,1.9-0.9,3.1c0,0.9,0.1,1.5,0.4,1.9C123.6,276.2,124,276.3,124.5,276.3z"/>
		</g>
		<g>
			<path class="st0" d="M101.5,308.2c0,0-9.7-7-16,3.1c0,0-3.2,5.7-11.6,0.7c0,0,13.6,13.4,15.7,4.6c0,0,0.4-3.8,3.8-5.5
				c0,0-3.3-0.2-6.7,3.8C86.7,314.9,89.1,303.9,101.5,308.2z"/>
			<path class="st0" d="M107.1,318c-8.5-0.9-6.7,5.9-6.7,5.9c1.6,7.9-5.3,8.2-5.3,8.2c11.2,4,9.2-9.4,9.2-9.4
				c-0.9,2.7-1.7,2.5-1.7,2.5C100.9,318.8,107.1,318,107.1,318z"/>
			<path class="st0" d="M97.6,322.4c0,0,0.2-3.5,0.8-4.6c0,0-2.1,4-3.6,3.9c0,0-2.2-6.5,2.7-8.9c0,0,4.1-1.7,7.9,1.2
				c0,0-4.8-5.3-10-2.3c0,0-4.4,1.8-3.1,10.9c0,0-1.3,2-6.6,0.9C85.6,323.5,96.5,330.4,97.6,322.4z"/>
			<path class="st0" d="M174.4,300.6c0,0-22.1-9-36.5,5.4l10.1-10.6c0,0,2.4-2.5,6.2-2.5c0,0,20.4-2.4,24.4-5.2c0,0-2.7,3.6-7.3,5.4
				c0,0,15.8,3.3,14-23.9c0,0-1.9,14-20.9,19.4c0,0-11.2,3.1-13.1,1c0,0,16.6-1.1,25.2-19.2c0,0,1.1,6.8-9.1,15.3
				c0,0,22.3-11.2,9.6-32.5c0,0,0.2,10.9-4.5,18c0,0-0.1-3.5-2.2-5.7c0,0,2.6,11.7-8.1,18c0,0-6.1,4.1-17.4,4.2c0,0,4.4,1.7,0,5.5
				c0,0-2.1,2.3-2.9,4c0,0,2.1-7.6-3-12.9c0,0,2.8,8.1-4.3,14.4c0,0-2,1.6-4.2,4.4c-0.3-0.6-0.7-1.3-1.2-1.9
				c-0.8-1.1-1.8-2.2-2.9-3.3c4.9-8.9,0.1-14.1,0.1-14.1c0.9,5.5-2.4,9.1-4.4,10.7c-1.9-1.6-5.3-5.1-4.4-10.7c0,0-4.7,5.1,0.1,14.1
				c-1.2,1.1-2.2,2.2-2.9,3.3c-0.5,0.6-0.9,1.3-1.2,1.9c-2.2-2.8-4.2-4.4-4.2-4.4c-7.1-6.3-4.3-14.4-4.3-14.4
				c-5.2,5.3-3,12.9-3,12.9c-0.7-1.7-2.9-4-2.9-4c-4.3-3.8,0-5.5,0-5.5c-11.3-0.1-17.4-4.2-17.4-4.2c-10.7-6.3-8.1-18-8.1-18
				c-2.1,2.2-2.2,5.7-2.2,5.7c-4.7-7.2-4.5-18-4.5-18c-12.8,21.4,9.6,32.5,9.6,32.5c-10.1-8.5-9.1-15.3-9.1-15.3
				c8.6,18.1,25.2,19.2,25.2,19.2c-1.9,2.1-13.1-1-13.1-1c-18.9-5.4-20.9-19.4-20.9-19.4c-1.8,27.1,14,23.9,14,23.9
				c-4.6-1.8-7.3-5.4-7.3-5.4c3.9,2.9,24.4,5.2,24.4,5.2c3.8,0.1,6.2,2.5,6.2,2.5L106,306c-14.4-14.4-36.5-5.4-36.5-5.4
				c-7.1,2.5-9.9,0-9.9,0c2.7,4.2,9.3,6.2,9.3,6.2c13.6,4.9,19-2.3,19-2.3c-6.3,3.2-13.9-1.6-13.9-1.6c17.3-10.1,32.3,6.4,32.3,6.4
				c13.3,12.4,6.3,21.1,6.3,21.1c7.7-7.9,7.1-15.6,4.4-21.4c0.4-0.7,0.9-1.3,1.3-1.7c1.1-1.2,2-1.8,2-1.8c0.5-0.5,1-1.1,1.5-1.6
				c0.5,0.5,1,1.1,1.5,1.6c0,0,0.9,0.6,2,1.8c0.4,0.5,0.9,1.1,1.3,1.7c-2.6,5.8-3.2,13.5,4.4,21.4c0,0-7.1-8.6,6.3-21.1
				c0,0,15-16.6,32.3-6.4c0,0-7.6,4.8-13.9,1.6c0,0,5.5,7.2,19,2.3c0,0,6.7-2.1,9.3-6.2C184.3,300.5,181.5,303,174.4,300.6z"/>
			<path class="st0" d="M158.4,311.3c-6.3-10.1-16-3.1-16-3.1c12.4-4.3,14.8,6.7,14.8,6.7c-3.4-4-6.7-3.8-6.7-3.8
				c3.3,1.7,3.8,5.5,3.8,5.5c2.2,8.8,15.7-4.6,15.7-4.6C161.6,317,158.4,311.3,158.4,311.3z"/>
			<path class="st0" d="M143.5,324c0,0,1.8-6.8-6.7-5.9c0,0,6.2,0.7,4.6,7.3c0,0-0.9,0.2-1.7-2.5c0,0-2,13.4,9.2,9.4
				C148.8,332.2,141.9,331.9,143.5,324z"/>
			<path class="st0" d="M151.6,322.6c1.2-9.1-3.1-10.9-3.1-10.9c-5.2-3-10,2.3-10,2.3c3.8-2.9,7.9-1.2,7.9-1.2
				c4.9,2.4,2.7,8.9,2.7,8.9c-1.5,0-3.6-3.9-3.6-3.9c0.6,1.1,0.8,4.6,0.8,4.6c1.1,8,12,1.1,12,1.1
				C153,324.6,151.6,322.6,151.6,322.6z"/>
		</g>
		<g>
			<path class="st0" d="M78.1,302.6C78.1,302.6,78.1,302.6,78.1,302.6C78.1,302.6,78.1,302.6,78.1,302.6
				C78.1,302.6,78.1,302.6,78.1,302.6z"/>
			<path class="st0" d="M170.9,294.5c-0.7-0.2-1.3-0.8-1.4-1.5c0-0.4,0.1-0.7,0.2-1c-0.8,0.2-1.6,0.3-2.5,0.5c0,1.4-0.1,2.8-0.3,4.1
				c2.8,0.5,5,1.1,6.4,1.6c0.1-1.1,0.1-2.3,0.1-3.5C172,294.8,171,294.6,170.9,294.5z"/>
			<path class="st0" d="M163.3,309.7c-0.3,0.7-0.7,1.5-1.1,2.2c0,0,0.1,0,0.1,0c1.8,0.5,4.1-0.1,6.7-1.7c0.6-0.4,1.3-0.3,1.9,0.1
				c0.1-0.3,0.2-0.7,0.3-1c-1.8,0.4-3.5,0.6-5.1,0.6C165.2,309.9,164.3,309.9,163.3,309.7z"/>
			<path class="st0" d="M76.7,292.5c-0.9-0.2-1.8-0.3-2.5-0.5c0.2,0.3,0.3,0.7,0.2,1c-0.1,0.8-0.6,1.4-1.4,1.5
				c-0.1,0-1.1,0.2-2.6,0.1c0,1.2,0.1,2.3,0.1,3.5c1.4-0.5,3.7-1.1,6.4-1.6C76.8,295.2,76.7,293.8,76.7,292.5z"/>
			<path class="st0" d="M78.5,278.4c5.6-18.7,22.9-32.4,43.5-32.4s37.9,13.7,43.5,32.4c1.5-1.8,2.5-4,3-6.5
				c-8.3-17.3-26-29.1-46.5-29.1c-20.5,0-38.1,11.9-46.5,29.1C76,274.3,77,276.5,78.5,278.4z"/>
			<path class="st0" d="M166,317.4c-3.4,2.5-6.2,3.7-8.4,3.7c-0.5,0-0.9-0.1-1.4-0.2c-0.3,0.3-0.6,0.7-0.9,1c0.7,0,1.5-0.1,2.6-0.3
				c0.8-0.2,1.6,0.3,1.9,1c0.3,0.8,0,1.7-0.7,2.1c-0.1,0-1.7,1.1-3.9,1.9c-1.8,0.7-3.5,1.1-4.9,1.1c-0.5,0-1,0-1.4-0.1
				c-0.8,0.6-1.7,1.2-2.5,1.7c1,0.8,2.3,0.9,2.4,0.9c0.8,0,1.5,0.6,1.6,1.4c0.1,0.8-0.4,1.6-1.1,1.9c-1.6,0.6-3,0.9-4.4,0.9
				c-1.7,0-3.2-0.5-4.3-1.5c-0.1-0.1-0.2-0.2-0.3-0.3c-5.6,2.5-11.9,3.9-18.4,3.9s-12.8-1.4-18.4-3.9c-0.1,0.1-0.2,0.2-0.3,0.3
				c-1.2,1-2.6,1.5-4.3,1.5c-1.3,0-2.8-0.3-4.4-0.9c-0.8-0.3-1.3-1.1-1.1-1.9c0.1-0.8,0.8-1.4,1.6-1.4c0.1,0,1.4-0.1,2.4-0.9
				c-0.9-0.6-1.7-1.1-2.5-1.7c-0.5,0.1-0.9,0.1-1.4,0.1c-1.4,0-3-0.4-4.9-1.1c-2.1-0.8-3.8-1.9-3.9-1.9c-0.7-0.4-1-1.3-0.7-2.1
				c0.3-0.8,1.1-1.2,1.9-1c1.1,0.2,1.9,0.3,2.6,0.3c-0.3-0.3-0.6-0.7-0.9-1c-0.4,0.1-0.9,0.2-1.4,0.2c-2.2,0-5-1.2-8.4-3.7
				c-1.3-0.9-2.5-1.9-3.4-2.7c7.9,18.4,26.2,31.2,47.4,31.2s39.5-12.9,47.4-31.2C168.5,315.5,167.3,316.4,166,317.4z"/>
			<path class="st0" d="M165.8,302.6C165.8,302.6,165.8,302.6,165.8,302.6C165.8,302.6,165.9,302.6,165.8,302.6
				C165.9,302.6,165.8,302.6,165.8,302.6z"/>
			<path class="st0" d="M74.8,310.3c2.6,1.6,4.9,2.1,6.7,1.7c0,0,0.1,0,0.1,0c-0.4-0.7-0.7-1.4-1.1-2.2c-0.9,0.1-1.9,0.2-2.9,0.2
				c-1.6,0-3.3-0.2-5.1-0.6c0.1,0.3,0.2,0.7,0.3,1C73.5,310,74.2,309.9,74.8,310.3z"/>
		</g>
	</g>
	<g>
		<linearGradient id="SVGID_1_" gradientUnits="userSpaceOnUse" x1="221.5721" y1="321.9788" x2="272.452" y2="271.0989">
			<stop  offset="0" style="stop-color:#001D7E"/>
			<stop  offset="0.2581" style="stop-color:#009BDB"/>
			<stop  offset="0.5054" style="stop-color:#001D7E"/>
			<stop  offset="0.7419" style="stop-color:#009BDB"/>
			<stop  offset="1" style="stop-color:#001D7E"/>
		</linearGradient>
		<path class="st1" d="M267,306.4l7.9,13.1l-1.1,0.8c-0.8-0.8-1.4-1.2-1.9-1.2c-0.5,0-1.9,0.7-4.2,2.2c-4.8,3-8.8,5.1-12.1,6.2
			c-3.3,1.1-7.1,1.6-11.6,1.6c-9,0-16.3-2.4-22.1-7.1c-3.4-2.7-6.1-6.1-8-10.2c-2.3-4.6-3.4-9.8-3.4-15.3c0-7.6,2-14.2,6-19.9
			c6.1-8.4,15.2-12.7,27.5-12.7c4.5,0,8.4,0.5,11.6,1.6c3.2,1,7.3,3.1,12.1,6.2c2.3,1.4,3.7,2.2,4.2,2.2c0.5,0,1.1-0.4,1.9-1.2
			l1.1,0.8l-7.9,13.1l-1.1-0.8c0.1-0.5,0.1-0.9,0.1-1.2c0-0.9-0.3-1.7-1-2.5c-0.7-0.8-1.9-1.7-3.7-2.8c-4.9-3.1-10.1-4.6-15.6-4.6
			c-6.5,0-11.7,1.8-15.5,5.4c-4.6,4.2-6.8,9.7-6.8,16.5c0,6.8,2.3,12.3,6.8,16.5c3.9,3.6,9,5.4,15.5,5.4c5.5,0,10.7-1.5,15.6-4.6
			c1.8-1.1,3-2.1,3.7-2.8c0.7-0.8,1-1.6,1-2.5c0-0.3,0-0.7-0.1-1.2L267,306.4z"/>
		<linearGradient id="SVGID_2_" gradientUnits="userSpaceOnUse" x1="289.1323" y1="321.8341" x2="328.3742" y2="282.5922">
			<stop  offset="0" style="stop-color:#001D7E"/>
			<stop  offset="0.2581" style="stop-color:#009BDB"/>
			<stop  offset="0.5054" style="stop-color:#001D7E"/>
			<stop  offset="0.7419" style="stop-color:#009BDB"/>
			<stop  offset="1" style="stop-color:#001D7E"/>
		</linearGradient>
		<path class="st2" d="M308.7,275.3c7.4,0,13.6,2.1,18.6,6.3c5.9,5,8.9,12.1,8.9,21.1c0,8.4-3,15.2-8.9,20.2
			c-4.9,4.2-11.1,6.3-18.5,6.3c-7.4,0-13.6-2.1-18.5-6.3c-5.9-5-8.9-11.9-8.9-20.6c0-8.8,3-15.7,8.9-20.6
			C295.2,277.5,301.3,275.4,308.7,275.3z M308.7,285.1c-4.8,0-8.7,1.7-11.8,5.1c-2.8,3.2-4.2,7.2-4.2,12c0,4.8,1.4,8.8,4.2,12
			c3,3.4,7,5.2,11.8,5.2c4.8,0,8.7-1.7,11.8-5.2c2.8-3.2,4.2-7.1,4.2-11.8c0-5.1-1.4-9.2-4.2-12.3
			C317.5,286.8,313.5,285.1,308.7,285.1z"/>
		<linearGradient id="SVGID_3_" gradientUnits="userSpaceOnUse" x1="344.1643" y1="328.9439" x2="397.6172" y2="275.491">
			<stop  offset="0" style="stop-color:#001D7E"/>
			<stop  offset="0.2581" style="stop-color:#009BDB"/>
			<stop  offset="0.5054" style="stop-color:#001D7E"/>
			<stop  offset="0.7419" style="stop-color:#009BDB"/>
			<stop  offset="1" style="stop-color:#001D7E"/>
		</linearGradient>
		<path class="st3" d="M356.1,294v29.3c0,1,0.2,1.7,0.6,2.2c0.4,0.5,1.1,0.9,2.1,1.2v1.3h-15.5v-1.3c1-0.3,1.7-0.7,2.1-1.2
			c0.4-0.5,0.6-1.3,0.6-2.2v-42.2c0-1-0.2-1.7-0.6-2.2c-0.4-0.5-1.1-0.9-2.1-1.2v-1.3h17.9v1.3c-1.2,0.3-1.8,0.9-1.8,1.8
			c0,0.7,0.4,1.6,1.3,2.6l25,27.5v-28.4c0-1-0.2-1.7-0.6-2.2c-0.4-0.5-1.1-0.9-2.1-1.2v-1.3h15.5v1.3c-1,0.3-1.7,0.7-2.1,1.2
			c-0.4,0.5-0.6,1.2-0.6,2.2v42.2c0,1,0.2,1.7,0.6,2.2c0.4,0.5,1.1,0.9,2.1,1.3v1.3h-16.7v-1.3c1.2-0.3,1.8-0.8,1.8-1.7
			c0-0.4-0.2-0.9-0.5-1.3c-0.3-0.5-1.1-1.4-2.3-2.7L356.1,294z"/>
		<linearGradient id="SVGID_4_" gradientUnits="userSpaceOnUse" x1="406.1536" y1="325.3033" x2="450.9865" y2="280.4704">
			<stop  offset="0" style="stop-color:#001D7E"/>
			<stop  offset="0.2581" style="stop-color:#009BDB"/>
			<stop  offset="0.5054" style="stop-color:#001D7E"/>
			<stop  offset="0.7419" style="stop-color:#009BDB"/>
			<stop  offset="1" style="stop-color:#001D7E"/>
		</linearGradient>
		<path class="st4" d="M451.6,281.1l-5.6,12l-1-0.6c0-1-0.3-1.8-0.9-2.4c-1.6-1.6-3.9-2.9-7-3.9c-3.1-1-6.2-1.5-9.4-1.5
			c-2.7,0-5.1,0.4-7.2,1.2c-3,1.2-4.5,2.9-4.5,5.2c0,1.5,0.7,2.6,2.2,3.2c1.4,0.6,4.2,1.1,8.4,1.5l6.6,0.6
			c5.8,0.5,10.1,1.7,13.1,3.7c1.7,1.1,3,2.6,4.1,4.4c1.4,2.3,2,4.9,2,7.8c0,5.3-2.1,9.4-6.4,12.4c-4.1,2.9-9.6,4.4-16.6,4.4
			c-7,0-13.8-1.6-20.4-4.9c-0.4-0.2-0.8-0.3-1.1-0.3c-0.6,0-1.1,0.4-1.5,1.1l-1-0.5l4.8-12.6l1,0.5c0,0.2,0,0.3,0,0.4
			c0,0.8,0.3,1.5,0.8,2c1.4,1.4,3.8,2.5,7.2,3.5c3.4,1,6.8,1.5,10.1,1.5c2.9,0,5.6-0.4,7.9-1.3c2.9-1,4.3-2.7,4.3-5.1
			c0-1.9-1-3.2-3-3.9c-1.3-0.5-3.7-0.9-7.2-1.2l-6.5-0.6c-3.5-0.3-6.2-0.7-8.1-1.2c-1.9-0.5-3.5-1.2-4.9-2.2c-1.8-1.2-3.2-2.9-4.2-5
			c-1-2.1-1.5-4.4-1.5-7c0-5.7,2.2-10,6.6-12.9c4-2.7,8.9-4.1,14.8-4.1c3.2,0,6.2,0.4,8.9,1.2c2.8,0.8,6.1,2.2,9.9,4.1
			c1.1,0.6,1.9,0.9,2.4,0.9c0.4,0,1-0.3,1.7-1L451.6,281.1z"/>
		<linearGradient id="SVGID_5_" gradientUnits="userSpaceOnUse" x1="461.4726" y1="319.4987" x2="507.7179" y2="273.2534">
			<stop  offset="0" style="stop-color:#001D7E"/>
			<stop  offset="0.2581" style="stop-color:#009BDB"/>
			<stop  offset="0.5054" style="stop-color:#001D7E"/>
			<stop  offset="0.7419" style="stop-color:#009BDB"/>
			<stop  offset="1" style="stop-color:#001D7E"/>
		</linearGradient>
		<path class="st5" d="M508.2,281.1v27.3c0,6.2-1.1,10.8-3.3,13.7c-3.6,4.6-10.3,7-20.3,7c-6.6,0-12-1.1-16.1-3.4
			c-2.9-1.6-5-3.9-6-7c-1-2.8-1.5-6.2-1.5-10.4v-27.3c0-1-0.2-1.7-0.6-2.2c-0.4-0.5-1.1-0.9-2.1-1.2v-1.3h16.5v1.3
			c-1,0.3-1.7,0.7-2.1,1.2c-0.4,0.5-0.6,1.2-0.6,2.2V306c0,2.9,0.2,5.1,0.7,6.6c0.5,1.5,1.3,2.8,2.4,3.8c2.3,2,5.6,3,9.9,3
			c4.3,0,7.6-1,9.9-3c1.1-1,1.9-2.2,2.3-3.8c0.4-1.5,0.7-3.7,0.7-6.6v-24.8c0-1-0.2-1.7-0.6-2.2c-0.4-0.5-1.1-0.9-2.1-1.2v-1.3h15.5
			v1.3c-1,0.3-1.7,0.7-2.1,1.2C508.4,279.4,508.2,280.2,508.2,281.1z"/>
		<linearGradient id="SVGID_6_" gradientUnits="userSpaceOnUse" x1="517.0549" y1="326.9102" x2="551.1112" y2="292.8539">
			<stop  offset="0" style="stop-color:#001D7E"/>
			<stop  offset="0.2581" style="stop-color:#009BDB"/>
			<stop  offset="0.5054" style="stop-color:#001D7E"/>
			<stop  offset="0.7419" style="stop-color:#009BDB"/>
			<stop  offset="1" style="stop-color:#001D7E"/>
		</linearGradient>
		<path class="st6" d="M532,318.7h26.1c0.9,0,1.6-0.2,2-0.6c0.4-0.4,0.8-1.2,1.1-2.3h1.1V331h-1.1c-0.3-1.1-0.6-1.9-1.1-2.3
			c-0.5-0.4-1.1-0.6-2-0.6h-40v-1.3c1-0.3,1.7-0.7,2.1-1.2c0.4-0.5,0.6-1.3,0.6-2.2v-42.2c0-1-0.2-1.7-0.6-2.2
			c-0.4-0.5-1.1-0.9-2.1-1.2v-1.3h16.5v1.3c-1,0.3-1.7,0.7-2.1,1.2c-0.4,0.5-0.6,1.2-0.6,2.2V318.7z"/>
		<linearGradient id="SVGID_7_" gradientUnits="userSpaceOnUse" x1="565.7389" y1="314.6748" x2="608.9368" y2="271.4769">
			<stop  offset="0" style="stop-color:#001D7E"/>
			<stop  offset="0.2581" style="stop-color:#009BDB"/>
			<stop  offset="0.5054" style="stop-color:#001D7E"/>
			<stop  offset="0.7419" style="stop-color:#009BDB"/>
			<stop  offset="1" style="stop-color:#001D7E"/>
		</linearGradient>
		<path class="st7" d="M592.9,285.8v37.5c0,1,0.2,1.7,0.6,2.2c0.4,0.5,1.1,0.9,2.1,1.3v1.3h-16.5v-1.3c1-0.3,1.7-0.7,2.1-1.2
			c0.4-0.5,0.6-1.3,0.6-2.2v-37.6H568c-0.9,0-1.6,0.2-2,0.7c-0.5,0.4-0.8,1.2-1.1,2.3h-1.1v-15.3h1.1c0.3,1.1,0.6,1.8,1.1,2.3
			c0.5,0.4,1.1,0.7,2,0.7h38.7c0.9,0,1.6-0.2,2-0.6c0.5-0.4,0.8-1.2,1.1-2.3h1.1v15.3h-1.1c-0.3-1.1-0.6-1.9-1.1-2.3
			c-0.5-0.4-1.1-0.7-2-0.7H592.9z"/>
		<linearGradient id="SVGID_8_" gradientUnits="userSpaceOnUse" x1="606.9363" y1="319.2456" x2="640.9926" y2="285.1893">
			<stop  offset="0" style="stop-color:#001D7E"/>
			<stop  offset="0.2581" style="stop-color:#009BDB"/>
			<stop  offset="0.5054" style="stop-color:#001D7E"/>
			<stop  offset="0.7419" style="stop-color:#009BDB"/>
			<stop  offset="1" style="stop-color:#001D7E"/>
		</linearGradient>
		<path class="st8" d="M629.5,281.1v42.2c0,1,0.2,1.7,0.6,2.2c0.4,0.5,1.1,0.9,2.1,1.3v1.3h-16.5v-1.3c1-0.3,1.7-0.7,2.1-1.2
			c0.4-0.5,0.6-1.3,0.6-2.2v-42.2c0-1-0.2-1.7-0.6-2.2c-0.4-0.5-1.1-0.9-2.1-1.2v-1.3h16.5v1.3c-1,0.3-1.7,0.7-2.1,1.2
			C629.7,279.4,629.5,280.2,629.5,281.1z"/>
		<linearGradient id="SVGID_9_" gradientUnits="userSpaceOnUse" x1="641.3441" y1="328.9439" x2="694.7969" y2="275.491">
			<stop  offset="0" style="stop-color:#001D7E"/>
			<stop  offset="0.2581" style="stop-color:#009BDB"/>
			<stop  offset="0.5054" style="stop-color:#001D7E"/>
			<stop  offset="0.7419" style="stop-color:#009BDB"/>
			<stop  offset="1" style="stop-color:#001D7E"/>
		</linearGradient>
		<path class="st9" d="M653.3,294v29.3c0,1,0.2,1.7,0.6,2.2c0.4,0.5,1.1,0.9,2.1,1.2v1.3h-15.5v-1.3c1-0.3,1.7-0.7,2.1-1.2
			c0.4-0.5,0.6-1.3,0.6-2.2v-42.2c0-1-0.2-1.7-0.6-2.2c-0.4-0.5-1.1-0.9-2.1-1.2v-1.3h17.9v1.3c-1.2,0.3-1.8,0.9-1.8,1.8
			c0,0.7,0.4,1.6,1.3,2.6l25,27.5v-28.4c0-1-0.2-1.7-0.6-2.2c-0.4-0.5-1.1-0.9-2.1-1.2v-1.3h15.5v1.3c-1,0.3-1.7,0.7-2.1,1.2
			c-0.4,0.5-0.6,1.2-0.6,2.2v42.2c0,1,0.2,1.7,0.6,2.2c0.4,0.5,1.1,0.9,2.1,1.3v1.3H679v-1.3c1.2-0.3,1.8-0.8,1.8-1.7
			c0-0.4-0.2-0.9-0.5-1.3c-0.3-0.5-1.1-1.4-2.3-2.7L653.3,294z"/>
		<linearGradient id="SVGID_10_" gradientUnits="userSpaceOnUse" x1="712.3785" y1="323.6875" x2="754.9219" y2="281.1441">
			<stop  offset="0" style="stop-color:#001D7E"/>
			<stop  offset="0.2581" style="stop-color:#009BDB"/>
			<stop  offset="0.5054" style="stop-color:#001D7E"/>
			<stop  offset="0.7419" style="stop-color:#009BDB"/>
			<stop  offset="1" style="stop-color:#001D7E"/>
		</linearGradient>
		<path class="st10" d="M746,308.1h-10.6c-0.9,0-1.6,0.2-2,0.6c-0.5,0.4-0.8,1.2-1.1,2.3h-1.1v-13.7h1.1c0.3,1.1,0.6,1.9,1.1,2.3
			c0.5,0.4,1.1,0.7,2,0.7h22.2v1.3c-1,0.3-1.7,0.8-2.1,1.3c-0.4,0.6-0.6,1.4-0.6,2.5v10.9c0,1,0.2,1.7,0.6,2.2
			c0.4,0.5,1.1,0.9,2.1,1.2v1.1c-9,5.5-18,8.2-26.9,8.2c-7.7,0-14-2-18.8-6c-2.6-2.2-4.7-4.9-6.3-8.2c-1.9-3.9-2.8-8-2.8-12.4
			c0-6.1,1.7-11.5,5.1-16.2c5.3-7.3,13.1-11,23.4-11c4.5,0,9.7,1.1,15.5,3.3c2.3,0.9,3.7,1.3,4,1.3c0.5,0,1-0.2,1.7-0.7l1,0.6
			l-5.6,13l-1-0.6c0-0.1,0-0.2,0-0.3c0-1.1-1-2.3-3.1-3.5c-3.8-2.2-7.9-3.4-12.2-3.4c-5,0-9.1,1.5-12.4,4.6
			c-3.4,3.2-5.1,7.5-5.1,12.9c0,5.1,1.5,9.1,4.6,12.2c3.2,3.1,7.6,4.7,13.3,4.7c5.4,0,10-1.1,13.8-3.4V308.1z"/>
	</g>
	<g>
		<g>
			<linearGradient id="SVGID_11_" gradientUnits="userSpaceOnUse" x1="105.2985" y1="273.7055" x2="123.2379" y2="255.7661">
				<stop  offset="0" style="stop-color:#001D7E"/>
				<stop  offset="0.2581" style="stop-color:#009BDB"/>
				<stop  offset="0.5054" style="stop-color:#001D7E"/>
				<stop  offset="0.7419" style="stop-color:#009BDB"/>
				<stop  offset="1" style="stop-color:#001D7E"/>
			</linearGradient>
			<path class="st11" d="M110.9,258.4v-1.8c0.5-0.5,1-0.9,1.6-1.3c0.5-0.4,1.1-0.9,1.8-1.4c0.6-0.5,1.3-1,2-1.4
				c0.7-0.5,1.5-0.9,2.4-1.4c0.8,1.1,1.2,2.2,1.2,3.3c0,0.6-0.1,1.2-0.4,1.9c-0.2,0.7-0.6,1.5-1,2.4c-0.4,0.9-0.9,2-1.6,3.4
				c-1.7,3.7-2.9,6.8-3.8,9.2c-0.8,2.4-1.2,4.1-1.2,4.9c0,0.1,0,0.3,0.1,0.8c0.1,0.5,0.1,0.8,0.1,1.1c0,0.4-0.1,0.6-0.4,0.7
				c-0.2,0-0.6-0.1-1-0.3c-1.1-0.5-1.8-1.1-2.2-1.5c-0.4-0.5-0.6-1.1-0.6-1.9c0-1.4,0.5-3.5,1.5-6.4c0.5-1.5,1.1-2.9,1.8-4.4
				c0.7-1.5,1.4-2.9,2.3-4.4c0.8-1.5,1.6-2.9,2.4-4.1C114.3,256.4,112.6,257.3,110.9,258.4z"/>
			<linearGradient id="SVGID_12_" gradientUnits="userSpaceOnUse" x1="119.8854" y1="276.1461" x2="140.6271" y2="255.4044">
				<stop  offset="0" style="stop-color:#001D7E"/>
				<stop  offset="0.2581" style="stop-color:#009BDB"/>
				<stop  offset="0.5054" style="stop-color:#001D7E"/>
				<stop  offset="0.7419" style="stop-color:#009BDB"/>
				<stop  offset="1" style="stop-color:#001D7E"/>
			</linearGradient>
			<path class="st12" d="M134.4,253.2l2.2,0.1c0.9,0.1,1.5,0.1,1.8,0.2c0.3,0.1,0.5,0.2,0.5,0.4c0,0.2-0.7,0.6-2,1.3
				c-1.3,0.7-2.4,1.4-3.3,1.9c-0.9,0.5-2.1,1.4-3.7,2.7c-1.6,1.3-3.1,2.8-4.7,4.5c-0.3,0.4-0.6,0.7-0.9,1.1c-0.3,0.4-0.5,0.7-0.7,1
				c-0.2,0.3-0.3,0.5-0.4,0.5c1.5-1.6,2.9-2.8,4.1-3.6c1.2-0.8,2.5-1.2,3.8-1.2c1.4,0,2.5,0.4,3.3,1.2c0.8,0.8,1.2,2,1.2,3.4
				c0,1.6-0.6,3.4-1.7,5.4c-1.1,2-2.5,3.6-4.2,5c-1.7,1.4-3.4,2-5,2c-1,0-1.9-0.4-2.9-1.2c-0.9-0.8-1.7-1.8-2.3-3
				c-0.6-1.2-0.9-2.5-0.9-3.7c0-1.7,0.6-3.7,1.9-6c1.2-2.3,3-4.5,5.4-6.7C128.5,256.6,131.3,254.7,134.4,253.2z M124,275.9
				c0.8,0,1.8-0.5,3.2-1.5c1.4-1,2.6-2.3,3.6-3.8c1-1.5,1.6-2.9,1.6-4.2c0-1.2-0.4-1.8-1.3-1.8c-1,0-2.6,0.9-4.8,2.8
				c-1.3,1.1-2.3,2.1-2.9,3c-0.6,0.9-0.9,1.9-0.9,3.1c0,0.9,0.1,1.5,0.4,1.9C123,275.7,123.4,275.9,124,275.9z"/>
		</g>
		<g>
			<linearGradient id="SVGID_13_" gradientUnits="userSpaceOnUse" x1="79.285" y1="317.4651" x2="94.9699" y2="301.7801">
				<stop  offset="0" style="stop-color:#001D7E"/>
				<stop  offset="0.2581" style="stop-color:#009BDB"/>
				<stop  offset="0.5054" style="stop-color:#001D7E"/>
				<stop  offset="0.7419" style="stop-color:#009BDB"/>
				<stop  offset="1" style="stop-color:#001D7E"/>
			</linearGradient>
			<path class="st13" d="M100.9,307.7c0,0-9.7-7-16,3.1c0,0-3.2,5.7-11.6,0.7c0,0,13.6,13.4,15.7,4.6c0,0,0.4-3.8,3.8-5.5
				c0,0-3.3-0.2-6.7,3.8C86.2,314.4,88.5,303.4,100.9,307.7z"/>
			<linearGradient id="SVGID_14_" gradientUnits="userSpaceOnUse" x1="94.5737" y1="331.7615" x2="107.6408" y2="318.6943">
				<stop  offset="0" style="stop-color:#001D7E"/>
				<stop  offset="0.2581" style="stop-color:#009BDB"/>
				<stop  offset="0.5054" style="stop-color:#001D7E"/>
				<stop  offset="0.7419" style="stop-color:#009BDB"/>
				<stop  offset="1" style="stop-color:#001D7E"/>
			</linearGradient>
			<path class="st14" d="M106.5,317.6c-8.5-0.9-6.7,5.9-6.7,5.9c1.6,7.9-5.3,8.2-5.3,8.2c11.2,4,9.2-9.4,9.2-9.4
				c-0.9,2.7-1.7,2.5-1.7,2.5C100.3,318.3,106.5,317.6,106.5,317.6z"/>
			<linearGradient id="SVGID_15_" gradientUnits="userSpaceOnUse" x1="87.5923" y1="325.5957" x2="102.1751" y2="311.0129">
				<stop  offset="0" style="stop-color:#001D7E"/>
				<stop  offset="0.2581" style="stop-color:#009BDB"/>
				<stop  offset="0.5054" style="stop-color:#001D7E"/>
				<stop  offset="0.7419" style="stop-color:#009BDB"/>
				<stop  offset="1" style="stop-color:#001D7E"/>
			</linearGradient>
			<path class="st15" d="M97,321.9c0,0,0.2-3.5,0.8-4.6c0,0-2.1,4-3.6,3.9c0,0-2.2-6.5,2.7-8.9c0,0,4.1-1.7,7.9,1.2
				c0,0-4.8-5.3-10-2.3c0,0-4.4,1.8-3.1,10.9c0,0-1.3,2-6.6,0.9C85,323.1,95.9,329.9,97,321.9z"/>
			<linearGradient id="SVGID_16_" gradientUnits="userSpaceOnUse" x1="80.1484" y1="321.4313" x2="162.5975" y2="238.9823">
				<stop  offset="0" style="stop-color:#001D7E"/>
				<stop  offset="0.2581" style="stop-color:#009BDB"/>
				<stop  offset="0.5054" style="stop-color:#001D7E"/>
				<stop  offset="0.7419" style="stop-color:#009BDB"/>
				<stop  offset="1" style="stop-color:#001D7E"/>
			</linearGradient>
			<path class="st16" d="M173.8,300.1c0,0-22.1-9-36.5,5.4l10.1-10.6c0,0,2.4-2.5,6.2-2.5c0,0,20.4-2.4,24.4-5.2
				c0,0-2.7,3.6-7.3,5.4c0,0,15.8,3.3,14-23.9c0,0-1.9,14-20.9,19.4c0,0-11.2,3.1-13.1,1c0,0,16.6-1.1,25.2-19.2
				c0,0,1.1,6.8-9.1,15.3c0,0,22.3-11.2,9.6-32.5c0,0,0.2,10.9-4.5,18c0,0-0.1-3.5-2.2-5.7c0,0,2.6,11.7-8.1,18
				c0,0-6.1,4.1-17.4,4.2c0,0,4.4,1.7,0,5.5c0,0-2.1,2.3-2.9,4c0,0,2.1-7.6-3-12.9c0,0,2.8,8.1-4.3,14.4c0,0-2,1.6-4.2,4.4
				c-0.3-0.6-0.7-1.3-1.2-1.9c-0.8-1.1-1.8-2.2-2.9-3.3c4.9-8.9,0.1-14.1,0.1-14.1c0.9,5.5-2.4,9.1-4.4,10.7
				c-1.9-1.6-5.3-5.1-4.4-10.7c0,0-4.7,5.1,0.1,14.1c-1.2,1.1-2.2,2.2-2.9,3.3c-0.5,0.6-0.9,1.3-1.2,1.9c-2.2-2.8-4.2-4.4-4.2-4.4
				c-7.1-6.3-4.3-14.4-4.3-14.4c-5.2,5.3-3,12.9-3,12.9c-0.7-1.7-2.9-4-2.9-4c-4.3-3.8,0-5.5,0-5.5c-11.3-0.1-17.4-4.2-17.4-4.2
				c-10.7-6.3-8.1-18-8.1-18c-2.1,2.2-2.2,5.7-2.2,5.7c-4.7-7.2-4.5-18-4.5-18c-12.8,21.4,9.6,32.5,9.6,32.5
				c-10.1-8.5-9.1-15.3-9.1-15.3c8.6,18.1,25.2,19.2,25.2,19.2c-1.9,2.1-13.1-1-13.1-1c-18.9-5.4-20.9-19.4-20.9-19.4
				c-1.8,27.1,14,23.9,14,23.9c-4.6-1.8-7.3-5.4-7.3-5.4c3.9,2.9,24.4,5.2,24.4,5.2c3.8,0.1,6.2,2.5,6.2,2.5l10.1,10.6
				c-14.4-14.4-36.5-5.4-36.5-5.4c-7.1,2.5-9.9,0-9.9,0c2.7,4.2,9.3,6.2,9.3,6.2c13.6,4.9,19-2.3,19-2.3c-6.3,3.2-13.9-1.6-13.9-1.6
				c17.3-10.1,32.3,6.4,32.3,6.4c13.3,12.4,6.3,21.1,6.3,21.1c7.7-7.9,7.1-15.6,4.4-21.4c0.4-0.7,0.9-1.3,1.3-1.7
				c1.1-1.2,2-1.8,2-1.8c0.5-0.5,1-1.1,1.5-1.6c0.5,0.5,1,1.1,1.5,1.6c0,0,0.9,0.6,2,1.8c0.4,0.5,0.9,1.1,1.3,1.7
				c-2.6,5.8-3.2,13.5,4.4,21.4c0,0-7.1-8.6,6.3-21.1c0,0,15-16.6,32.3-6.4c0,0-7.6,4.8-13.9,1.6c0,0,5.5,7.2,19,2.3
				c0,0,6.7-2.1,9.3-6.2C183.7,300,180.9,302.5,173.8,300.1z"/>
			<linearGradient id="SVGID_17_" gradientUnits="userSpaceOnUse" x1="149.6696" y1="315.5714" x2="161.5673" y2="303.6738">
				<stop  offset="0" style="stop-color:#001D7E"/>
				<stop  offset="0.2581" style="stop-color:#009BDB"/>
				<stop  offset="0.5054" style="stop-color:#001D7E"/>
				<stop  offset="0.7419" style="stop-color:#009BDB"/>
				<stop  offset="1" style="stop-color:#001D7E"/>
			</linearGradient>
			<path class="st17" d="M157.8,310.8c-6.3-10.1-16-3.1-16-3.1c12.4-4.3,14.8,6.7,14.8,6.7c-3.4-4-6.7-3.8-6.7-3.8
				c3.3,1.7,3.8,5.5,3.8,5.5c2.2,8.8,15.7-4.6,15.7-4.6C161,316.6,157.8,310.8,157.8,310.8z"/>
			<linearGradient id="SVGID_18_" gradientUnits="userSpaceOnUse" x1="138.3201" y1="328.5465" x2="144.9573" y2="321.9093">
				<stop  offset="0" style="stop-color:#001D7E"/>
				<stop  offset="0.2581" style="stop-color:#009BDB"/>
				<stop  offset="0.5054" style="stop-color:#001D7E"/>
				<stop  offset="0.7419" style="stop-color:#009BDB"/>
				<stop  offset="1" style="stop-color:#001D7E"/>
			</linearGradient>
			<path class="st18" d="M142.9,323.5c0,0,1.8-6.8-6.7-5.9c0,0,6.2,0.7,4.6,7.3c0,0-0.9,0.2-1.7-2.5c0,0-2,13.4,9.2,9.4
				C148.2,331.7,141.3,331.4,142.9,323.5z"/>
			<linearGradient id="SVGID_19_" gradientUnits="userSpaceOnUse" x1="144.1724" y1="321.9941" x2="151.5521" y2="314.6145">
				<stop  offset="0" style="stop-color:#001D7E"/>
				<stop  offset="0.2581" style="stop-color:#009BDB"/>
				<stop  offset="0.5054" style="stop-color:#001D7E"/>
				<stop  offset="0.7419" style="stop-color:#009BDB"/>
				<stop  offset="1" style="stop-color:#001D7E"/>
			</linearGradient>
			<path class="st19" d="M151.1,322.2c1.2-9.1-3.1-10.9-3.1-10.9c-5.2-3-10,2.3-10,2.3c3.8-2.9,7.9-1.2,7.9-1.2
				c4.9,2.4,2.7,8.9,2.7,8.9c-1.5,0-3.6-3.9-3.6-3.9c0.6,1.1,0.8,4.6,0.8,4.6c1.1,8,12,1.1,12,1.1
				C152.4,324.2,151.1,322.2,151.1,322.2z"/>
		</g>
		<g>
			<linearGradient id="SVGID_20_" gradientUnits="userSpaceOnUse" x1="77.4762" y1="302.1204" x2="77.4872" y2="302.1094">
				<stop  offset="0" style="stop-color:#001D7E"/>
				<stop  offset="0.2581" style="stop-color:#009BDB"/>
				<stop  offset="0.5054" style="stop-color:#001D7E"/>
				<stop  offset="0.7419" style="stop-color:#009BDB"/>
				<stop  offset="1" style="stop-color:#001D7E"/>
			</linearGradient>
			<path class="st20" d="M77.5,302.1C77.5,302.1,77.5,302.1,77.5,302.1C77.5,302.1,77.5,302.1,77.5,302.1
				C77.5,302.1,77.5,302.1,77.5,302.1z"/>
			<linearGradient id="SVGID_21_" gradientUnits="userSpaceOnUse" x1="167.4401" y1="297.1336" x2="171.6734" y2="292.9004">
				<stop  offset="0" style="stop-color:#001D7E"/>
				<stop  offset="0.2581" style="stop-color:#009BDB"/>
				<stop  offset="0.5054" style="stop-color:#001D7E"/>
				<stop  offset="0.7419" style="stop-color:#009BDB"/>
				<stop  offset="1" style="stop-color:#001D7E"/>
			</linearGradient>
			<path class="st21" d="M170.3,294.1c-0.7-0.2-1.3-0.8-1.4-1.5c0-0.4,0.1-0.7,0.2-1c-0.8,0.2-1.6,0.3-2.5,0.5
				c0,1.4-0.1,2.8-0.3,4.1c2.8,0.5,5,1.1,6.4,1.6c0.1-1.1,0.1-2.3,0.1-3.5C171.5,294.3,170.4,294.1,170.3,294.1z"/>
			<linearGradient id="SVGID_22_" gradientUnits="userSpaceOnUse" x1="163.2079" y1="312.9502" x2="169.0063" y2="307.1518">
				<stop  offset="0" style="stop-color:#001D7E"/>
				<stop  offset="0.2581" style="stop-color:#009BDB"/>
				<stop  offset="0.5054" style="stop-color:#001D7E"/>
				<stop  offset="0.7419" style="stop-color:#009BDB"/>
				<stop  offset="1" style="stop-color:#001D7E"/>
			</linearGradient>
			<path class="st22" d="M162.8,309.3c-0.3,0.7-0.7,1.5-1.1,2.2c0,0,0.1,0,0.1,0c1.8,0.5,4.1-0.1,6.7-1.7c0.6-0.4,1.3-0.3,1.9,0.1
				c0.1-0.3,0.2-0.7,0.3-1c-1.8,0.4-3.5,0.6-5.1,0.6C164.7,309.5,163.7,309.4,162.8,309.3z"/>
			<linearGradient id="SVGID_23_" gradientUnits="userSpaceOnUse" x1="70.2271" y1="297.9791" x2="76.1513" y2="292.0549">
				<stop  offset="0" style="stop-color:#001D7E"/>
				<stop  offset="0.2581" style="stop-color:#009BDB"/>
				<stop  offset="0.5054" style="stop-color:#001D7E"/>
				<stop  offset="0.7419" style="stop-color:#009BDB"/>
				<stop  offset="1" style="stop-color:#001D7E"/>
			</linearGradient>
			<path class="st23" d="M76.1,292c-0.9-0.2-1.8-0.3-2.5-0.5c0.2,0.3,0.3,0.7,0.2,1c-0.1,0.8-0.6,1.4-1.4,1.5
				c-0.1,0-1.1,0.2-2.6,0.1c0,1.2,0.1,2.3,0.1,3.5c1.4-0.5,3.7-1.1,6.4-1.6C76.2,294.7,76.1,293.4,76.1,292z"/>
			<linearGradient id="SVGID_24_" gradientUnits="userSpaceOnUse" x1="96.2475" y1="296.2042" x2="146.4985" y2="245.9532">
				<stop  offset="0" style="stop-color:#001D7E"/>
				<stop  offset="0.2581" style="stop-color:#009BDB"/>
				<stop  offset="0.5054" style="stop-color:#001D7E"/>
				<stop  offset="0.7419" style="stop-color:#009BDB"/>
				<stop  offset="1" style="stop-color:#001D7E"/>
			</linearGradient>
			<path class="st24" d="M77.9,277.9c5.6-18.7,22.9-32.4,43.5-32.4s37.9,13.7,43.5,32.4c1.5-1.8,2.5-4,3-6.5
				c-8.3-17.3-26-29.1-46.5-29.1c-20.5,0-38.1,11.9-46.5,29.1C75.4,273.8,76.4,276,77.9,277.9z"/>
			<linearGradient id="SVGID_25_" gradientUnits="userSpaceOnUse" x1="96.3729" y1="341.7677" x2="146.3731" y2="291.7675">
				<stop  offset="0" style="stop-color:#001D7E"/>
				<stop  offset="0.2581" style="stop-color:#009BDB"/>
				<stop  offset="0.5054" style="stop-color:#001D7E"/>
				<stop  offset="0.7419" style="stop-color:#009BDB"/>
				<stop  offset="1" style="stop-color:#001D7E"/>
			</linearGradient>
			<path class="st25" d="M165.4,316.9c-3.4,2.5-6.2,3.7-8.4,3.7c-0.5,0-0.9-0.1-1.4-0.2c-0.3,0.3-0.6,0.7-0.9,1
				c0.7,0,1.5-0.1,2.6-0.3c0.8-0.2,1.6,0.3,1.9,1c0.3,0.8,0,1.7-0.7,2.1c-0.1,0-1.7,1.1-3.9,1.9c-1.8,0.7-3.5,1.1-4.9,1.1
				c-0.5,0-1,0-1.4-0.1c-0.8,0.6-1.7,1.2-2.5,1.7c1,0.8,2.3,0.9,2.4,0.9c0.8,0,1.5,0.6,1.6,1.4c0.1,0.8-0.4,1.6-1.1,1.9
				c-1.6,0.6-3,0.9-4.4,0.9c-1.7,0-3.2-0.5-4.3-1.5c-0.1-0.1-0.2-0.2-0.3-0.3c-5.6,2.5-11.9,3.9-18.4,3.9s-12.8-1.4-18.4-3.9
				c-0.1,0.1-0.2,0.2-0.3,0.3c-1.2,1-2.6,1.5-4.3,1.5c-1.3,0-2.8-0.3-4.4-0.9c-0.8-0.3-1.3-1.1-1.1-1.9c0.1-0.8,0.8-1.4,1.6-1.4
				c0.1,0,1.4-0.1,2.4-0.9c-0.9-0.6-1.7-1.1-2.5-1.7c-0.5,0.1-0.9,0.1-1.4,0.1c-1.4,0-3-0.4-4.9-1.1c-2.1-0.8-3.8-1.9-3.9-1.9
				c-0.7-0.4-1-1.3-0.7-2.1c0.3-0.8,1.1-1.2,1.9-1c1.1,0.2,1.9,0.3,2.6,0.3c-0.3-0.3-0.6-0.7-0.9-1c-0.4,0.1-0.9,0.2-1.4,0.2
				c-2.2,0-5-1.2-8.4-3.7c-1.3-0.9-2.5-1.9-3.4-2.7c7.9,18.4,26.2,31.2,47.4,31.2s39.5-12.9,47.4-31.2
				C167.9,315,166.7,315.9,165.4,316.9z"/>
			<linearGradient id="SVGID_26_" gradientUnits="userSpaceOnUse" x1="165.2556" y1="302.1315" x2="165.278" y2="302.1091">
				<stop  offset="0" style="stop-color:#001D7E"/>
				<stop  offset="0.2581" style="stop-color:#009BDB"/>
				<stop  offset="0.5054" style="stop-color:#001D7E"/>
				<stop  offset="0.7419" style="stop-color:#009BDB"/>
				<stop  offset="1" style="stop-color:#001D7E"/>
			</linearGradient>
			<path class="st26" d="M165.3,302.1C165.3,302.1,165.3,302.1,165.3,302.1C165.3,302.1,165.3,302.1,165.3,302.1
				C165.3,302.1,165.3,302.1,165.3,302.1z"/>
			<linearGradient id="SVGID_27_" gradientUnits="userSpaceOnUse" x1="74.5692" y1="312.1206" x2="78.7087" y2="307.9812">
				<stop  offset="0" style="stop-color:#001D7E"/>
				<stop  offset="0.2581" style="stop-color:#009BDB"/>
				<stop  offset="0.5054" style="stop-color:#001D7E"/>
				<stop  offset="0.7419" style="stop-color:#009BDB"/>
				<stop  offset="1" style="stop-color:#001D7E"/>
			</linearGradient>
			<path class="st27" d="M74.2,309.8c2.6,1.6,4.9,2.1,6.7,1.7c0,0,0.1,0,0.1,0c-0.4-0.7-0.7-1.4-1.1-2.2c-0.9,0.1-1.9,0.2-2.9,0.2
				c-1.6,0-3.3-0.2-5.1-0.6c0.1,0.3,0.2,0.7,0.3,1C72.9,309.5,73.6,309.4,74.2,309.8z"/>
		</g>
	</g>
</g>
</svg>
