<?xml version="1.0" encoding="UTF-8"?>
<!DOCTYPE svg PUBLIC "-//W3C//DTD SVG 1.1//EN" "http://www.w3.org/Graphics/SVG/1.1/DTD/svg11.dtd">
<!-- Creator: CorelDRAW 2017 -->
<svg xmlns="http://www.w3.org/2000/svg" xml:space="preserve" width="130mm" height="90mm" version="1.1" style="shape-rendering:geometricPrecision; text-rendering:geometricPrecision; image-rendering:optimizeQuality; fill-rule:evenodd; clip-rule:evenodd"
viewBox="0 0 13000 9000"
 xmlns:xlink="http://www.w3.org/1999/xlink">
 <defs>
  <style type="text/css">
   <![CDATA[
    .fil0 {fill:#2D4B7B}
   ]]>
  </style>
 </defs>
 <g id="Capa_x0020_1">
  <metadata id="CorelCorpID_0Corel-Layer"/>
  <g id="_1543791040">
   <path class="fil0" d="M1894.94 7895.86l168.61 277.72 -23.08 17.57c-16.54,-16.9 -30.17,-25.36 -40.83,-25.36 -10.59,0 -40.49,15.59 -89.56,46.97 -101.78,64.57 -187.41,108.13 -256.9,130.51 -69.52,22.55 -152.16,33.76 -248.02,33.76 -191.07,0 -347.77,-49.65 -470.23,-149.28 -72.21,-57.95 -128.99,-129.81 -170.39,-215.76 -47.93,-98.2 -71.88,-206.56 -71.88,-325.03 0,-161.33 42.92,-301.58 128.65,-420.65 128.96,-178.96 323.9,-268.39 584.76,-268.39 95.82,0 178.06,10.98 246.64,33.16 68.61,22.08 154.41,65.74 257.37,130.78 49.07,30.58 78.97,45.94 89.56,45.94 10.66,0 24.29,-8.54 40.83,-25.43l23.08 17.5 -168.61 278.19 -23.91 -17.47c1.14,-10.37 1.75,-19.13 1.75,-26.19 0,-18.77 -7.4,-36.47 -22.2,-53.03 -14.77,-16.5 -41.1,-36.47 -78.98,-59.86 -104.7,-64.77 -215.59,-97.22 -332.74,-97.22 -138.37,0 -248.68,38.14 -330.92,114.12 -97,89.03 -145.53,205.39 -145.53,348.98 0,143.77 48.53,260.19 145.53,349.15 82.24,76.05 192.55,114.12 330.92,114.12 117.15,0 228.04,-32.55 332.74,-97.59 37.88,-23.48 64.21,-43.42 78.98,-60.09 14.8,-16.62 22.2,-34.32 22.2,-53.19 0,-7.09 -0.61,-15.59 -1.75,-25.39l23.91 -18.54z"/>
   <path class="fil0" d="M2783.58 7443.93c-102.48,0 -185.99,36.1 -250.54,108.33 -59.8,67.79 -89.73,152.63 -89.73,254.84 0,101.51 29.93,186.02 89.73,253.77 64.55,72.83 148.36,109.3 251.41,109.3 102.49,0 186.03,-36.47 250.58,-109.3 59.8,-67.05 89.73,-150.05 89.73,-248.95 0,-107.36 -29.93,-193.88 -89.73,-259.66 -65.15,-70.89 -148.97,-107.02 -251.45,-108.33zm-0.87 -206.93c158.04,0 289.75,44.27 395.16,132.79 126.06,106.73 189.12,255.44 189.12,446.08 0,178.92 -63.06,321.71 -189.12,428.54 -104.23,88.36 -235.37,132.62 -393.42,132.62 -158.04,0 -289.15,-44.26 -393.34,-132.62 -126.67,-106.83 -190.03,-252.56 -190.03,-437.31 0,-186.82 63.36,-332.59 190.03,-437.31 104.8,-86.62 235.3,-130.88 391.6,-132.79z"/>
   <path class="fil0" d="M3791.99 7633.23l0 620.01c0,20.21 4.31,35.77 12.88,46.77 8.58,11.04 23.24,19.81 43.9,26.3l0 27.4 -330.05 0 0 -27.4c20.71,-5.79 35.31,-14.29 43.96,-25.39 8.5,-10.98 12.81,-26.67 12.81,-46.84l0 -894.06c0,-20.21 -4.1,-35.56 -12.41,-45.9 -8.27,-10.37 -23.07,-19.17 -44.36,-26.33l0 -27.4 381.71 0 0 27.4c-26.07,7.16 -39.09,19.81 -39.09,38.04 0,15.66 9.46,33.82 28.39,54.63l533.13 581.74 0 -602.18c0,-20.21 -4.14,-35.63 -12.38,-46.37 -8.3,-10.74 -23.07,-19.37 -44.39,-25.86l0 -27.4 330.08 0 0 27.4c-21.32,6.49 -36.12,15.12 -44.36,25.86 -8.28,10.74 -12.41,26.1 -12.41,46.24l0 893.35c0,20.08 4.13,35.57 12.41,46.31 8.24,10.74 23.04,19.67 44.36,26.76l0 27.4 -355.95 0 0 -27.4c26.04,-5.79 39.05,-17.7 39.05,-35.76 0,-9.1 -3.56,-18.41 -10.63,-28.07 -7.09,-9.71 -23.37,-28.81 -48.83,-57.15l-527.82 -572.1z"/>
   <path class="fil0" d="M5825.7 7359.05l-119.77 254.74 -21.33 -12.65c0,-21.48 -6.22,-38.51 -18.63,-50.85 -33.7,-33.19 -83.41,-60.42 -149.07,-81.94 -65.65,-21.47 -132.21,-32.21 -199.61,-32.21 -57.42,0 -108.27,8.76 -152.63,26.33 -63.91,25.36 -95.86,62.19 -95.86,110.37 0,31.85 15.4,54.5 46.18,67.75 30.74,13.45 90.21,23.95 178.29,31.75l140.22 11.64c122.46,10.54 215.63,36.47 279.53,78.16 35.45,23.48 64.75,54.63 87.82,93.74 28.96,48.81 43.49,103.82 43.49,164.94 0,111.21 -45.57,199.13 -136.65,263.6 -86.95,61.83 -204.67,92.61 -353.19,92.61 -149.64,0 -294.23,-34.79 -433.85,-104.42 -9.45,-4.48 -17.42,-6.72 -23.94,-6.72 -11.84,0 -22.77,7.79 -32.83,23.38l-22.2 -9.83 102.05 -267.45 22.16 9.8c0,3.88 0,6.52 0,7.8 0,16.96 5.92,31.28 17.76,42.99 29.56,28.67 80.72,53.56 153.5,74.67 72.75,21.11 144.66,31.62 215.6,31.62 62.72,0 118.93,-9.07 168.64,-27.24 61.48,-22.08 92.22,-57.94 92.22,-107.42 0,-39.65 -21.29,-67.25 -63.87,-82.94 -28.35,-10.41 -79.54,-19.14 -153.5,-26.33l-139.28 -12.78c-75.14,-6.49 -132.52,-14.82 -172.14,-25.33 -39.62,-10.37 -74.26,-25.66 -103.83,-45.8 -37.87,-26.1 -67.43,-61.49 -88.76,-106.49 -21.25,-44.83 -31.92,-93.92 -31.92,-147.41 0,-119.68 46.72,-211.15 140.19,-274.18 85.19,-57.34 190.43,-85.95 315.89,-85.95 68.01,0 131.47,8.3 190.33,24.96 58.83,16.5 129.09,45.64 210.72,87.32 24.22,12.42 41.1,18.54 50.55,18.54 9.52,0 21.59,-7.2 36.39,-21.48l21.33 12.71z"/>
   <path class="fil0" d="M7031.5 7360.02l0 578.8c0,132.08 -23.64,229.07 -70.96,290.97 -76.35,98.19 -220.07,147.24 -431.22,147.24 -141.43,0 -255.59,-23.69 -342.5,-71.13 -62.69,-34.59 -105.61,-83.67 -128.65,-147.44 -21.32,-58.52 -31.91,-131.82 -31.91,-219.64l0 -578.8c0,-20.21 -4.21,-35.56 -12.48,-45.9 -8.24,-10.37 -23.04,-19.17 -44.37,-26.33l0 -27.4 351.38 0 0 27.4c-21.56,6.49 -36.39,15.12 -44.53,25.86 -8.18,10.74 -12.25,26.16 -12.25,46.37l0 526.04c0,61.29 4.88,108.13 14.63,140.58 9.76,32.55 26.74,59.25 51.06,80.03 48.47,42.39 118.56,63.5 210.28,63.5 91.65,0 161.74,-21.11 210.28,-63.5 23.64,-20.78 40.22,-47.48 49.68,-80.03 9.45,-32.45 14.19,-79.29 14.19,-140.58l0 -526.04c0,-20.21 -4,-35.56 -11.97,-45.9 -8.01,-10.37 -22.94,-19.17 -44.8,-26.33l0 -27.4 330.95 0 0 27.4c-21.29,6.49 -36.09,15.12 -44.39,25.86 -8.24,10.74 -12.42,26.16 -12.42,46.37z"/>
   <path class="fil0" d="M7538.2 8155.52l556.3 0c18.91,0 33.1,-4.49 42.62,-13.42 9.45,-9 17.42,-25.29 23.94,-49.01l23.92 0 0 323.05 -23.92 0c-5.91,-23.38 -13.75,-39.64 -23.54,-48.74 -9.72,-9.21 -24.11,-13.69 -43.02,-13.69l-850.9 0 0 -27.4c20.65,-5.79 35.32,-14.29 43.89,-25.39 8.58,-10.98 12.88,-26.67 12.88,-46.84l0 -894.06c0,-20.21 -4.13,-35.56 -12.41,-45.9 -8.3,-10.37 -23.1,-19.17 -44.36,-26.33l0 -27.4 351.37 0 0 27.4c-21.32,6.49 -36.12,15.12 -44.36,25.86 -8.31,10.74 -12.41,26.16 -12.41,46.37l0 795.5z"/>
   <path class="fil0" d="M8835.39 7458.58l0 794.66c0,20.08 4.14,35.57 12.44,46.31 8.28,10.74 23.08,19.67 44.33,26.76l0 27.4 -351.37 0 0 -27.4c20.72,-5.79 35.38,-14.29 43.96,-25.39 8.54,-10.98 12.88,-26.67 12.88,-46.84l0 -795.5 -292.85 0c-18.93,0 -33.26,4.72 -42.98,13.92 -9.79,9.34 -17.63,25.53 -23.55,48.51l-23.98 0 0 -323.05 23.98 0c5.32,22.78 12.85,38.84 22.64,48.28 9.75,9.43 24.12,14.15 43.09,14.15l824.16 0c18.94,0 33.26,-4.48 43.05,-13.68 9.79,-9.1 17.62,-25.36 23.54,-48.75l23.95 0 0 323.05 -23.95 0c-5.88,-22.98 -13.72,-39.17 -23.51,-48.51 -9.75,-9.2 -24.08,-13.92 -43.01,-13.92l-292.82 0z"/>
   <path class="fil0" d="M9615.29 7359.89l0 893.35c0,20.08 4.17,35.57 12.48,46.31 8.24,10.74 23.04,19.67 44.36,26.76l0 27.4 -351.37 0 0 -27.4c20.65,-5.79 35.32,-14.29 43.89,-25.39 8.58,-10.98 12.88,-26.67 12.88,-46.84l0 -894.06c0,-20.21 -4.13,-35.56 -12.41,-45.9 -8.3,-10.37 -23.1,-19.17 -44.36,-26.33l0 -27.4 351.37 0 0 27.4c-21.32,6.49 -36.12,15.12 -44.36,25.86 -8.31,10.74 -12.48,26.1 -12.48,46.24z"/>
   <path class="fil0" d="M10120.24 7633.23l0 620.01c0,20.21 4.24,35.77 12.81,46.77 8.61,11.04 23.24,19.81 43.96,26.3l0 27.4 -330.08 0 0 -27.4c20.68,-5.79 35.35,-14.29 43.92,-25.39 8.58,-10.98 12.85,-26.67 12.85,-46.84l0 -894.06c0,-20.21 -4.13,-35.56 -12.44,-45.9 -8.28,-10.37 -23.04,-19.17 -44.33,-26.33l0 -27.4 381.68 0 0 27.4c-26.07,7.16 -39.09,19.81 -39.09,38.04 0,15.66 9.49,33.82 28.42,54.63l533.13 581.74 0 -602.18c0,-20.21 -4.17,-35.63 -12.41,-46.37 -8.3,-10.74 -23.07,-19.37 -44.36,-25.86l0 -27.4 330.05 0 0 27.4c-21.26,6.49 -36.06,15.12 -44.36,25.86 -8.28,10.74 -12.41,26.1 -12.41,46.24l0 893.35c0,20.08 4.13,35.57 12.41,46.31 8.3,10.74 23.1,19.67 44.36,26.76l0 27.4 -355.91 0 0 -27.4c26,-5.79 39.01,-17.7 39.01,-35.76 0,-9.1 -3.56,-18.41 -10.63,-28.07 -7.09,-9.71 -23.37,-28.81 -48.83,-57.15l-527.75 -572.1z"/>
   <path class="fil0" d="M12094.41 7931.99l-226.29 0c-18.87,0 -33.23,4.62 -42.95,13.69 -9.85,9.1 -17.69,25.36 -23.47,48.74l-23.99 0 0 -289.86 23.99 0c5.78,23.11 13.62,39.41 23.47,48.61 9.72,9.2 24.08,13.82 42.95,13.82l472.96 0 0 28.3c-20.65,6.49 -35.35,15.96 -43.89,28.34 -8.54,12.38 -12.81,29.97 -12.81,52.76l0 230.28c0,20.17 4.27,35.86 12.81,46.87 8.54,11.04 23.24,19.91 43.89,26.4l0 22.45c-191.61,116.46 -382.65,174.64 -573.22,174.64 -164.44,0 -297.49,-42.59 -399.23,-127.8 -55.03,-46.84 -99.36,-104.79 -133.13,-173.71 -39.62,-82.07 -59.39,-169.49 -59.39,-262.63 0,-128.91 36.05,-243.36 108.2,-343.57 112.4,-154.83 278.62,-232.32 498.62,-232.32 96.46,0 206.48,23.39 330.08,70.26 49.14,18.27 77.86,27.4 86.17,27.4 9.96,0 21.83,-5.22 35.45,-15.72l21.26 12.78 -118.43 275.18 -21.22 -11.65c0,-2.57 0,-4.61 0,-5.92 0,-24.05 -21.96,-48.71 -65.62,-74.1 -81.06,-47.54 -168,-71.3 -260.8,-71.3 -106.99,0 -194.77,32.22 -263.32,96.69 -72.14,67.62 -108.2,158.72 -108.2,273.21 0,107.42 32.83,193.31 98.52,257.78 67.43,65.74 162.08,98.56 283.9,98.56 115.94,0 213.81,-23.75 293.69,-71.26l0 -166.92z"/>
   <path class="fil0" d="M5906.12 1548.17l0 -101.4c29.8,-26.37 60,-51.89 90.67,-76.62 30.64,-24.76 64.81,-51.49 102.55,-80.33 37.67,-28.87 76.62,-56.44 116.81,-82.83 40.16,-26.37 85.97,-53.57 137.33,-81.61 45.54,65.95 68.34,129.01 68.34,189.13 0,32.96 -7.03,69.66 -21.12,110.01 -14.09,40.38 -33.36,86.55 -57.82,138.44 -24.41,51.93 -54.85,117.07 -91.28,195.35 -97.8,215.09 -170.89,392.45 -219.39,532.13 -48.43,139.71 -72.65,234.69 -72.65,284.91 0,4.18 2.86,20.24 8.64,48.25 5.79,28.03 8.75,49.04 8.75,63.03 0,23.92 -6.9,36.7 -20.52,38.34 -13.65,1.67 -32.93,-3.31 -57.78,-14.85 -63.84,-31.29 -106.49,-61 -128.01,-89.03 -21.56,-27.97 -32.32,-64.24 -32.32,-108.74 0,-79.96 29.39,-203.98 88.25,-372.1 29.8,-84.84 64.61,-169.35 104.37,-253.4 39.79,-84.04 83.91,-169.15 132.38,-255.27 48.43,-86.08 94.21,-165.44 137.29,-237.94 -93.63,38.71 -191.81,90.23 -294.49,154.53z"/>
   <path class="fil0" d="M6669.1 2560.56c43.93,0 105.81,-29.67 185.83,-89.02 79.94,-59.32 150.34,-131.85 211.25,-217.57 60.84,-85.72 91.28,-166.85 91.28,-243.53 0,-69.19 -26.1,-103.81 -78.26,-103.81 -59.67,0 -152.87,53.16 -279.6,159.48 -76.22,64.27 -131.95,122.59 -167.16,174.91 -35.22,52.33 -52.81,111.45 -52.81,177.39 0,50.28 6.83,86.52 20.49,108.77 13.69,22.24 36.69,33.38 68.98,33.38zm608.94 -1311.55l129.26 7.42c52.97,3.32 88.86,6.59 107.49,9.84 18.63,3.35 27.92,10.34 27.92,21.04 0,9.07 -38.51,34.87 -115.54,77.25 -77.09,42.49 -141.26,79.13 -192.62,110.04 -51.39,30.92 -122.63,83.01 -213.77,156.38 -91.12,73.33 -181.86,161.12 -272.14,263.3 -18.23,21.45 -35.24,42.66 -50.95,63.67 -15.74,21.01 -29.6,40.98 -41.61,59.92 -12.07,19 -18.87,29.31 -20.55,30.91 88.66,-93.91 167.97,-163.77 238.03,-209.5 69.96,-45.74 143.52,-68.62 220.57,-68.62 80.32,0 143.72,24.12 190.1,72.3 46.41,48.24 69.62,114.35 69.62,198.39 0,93.95 -32.76,198.03 -98.18,312.19 -65.48,114.08 -147.88,210.54 -247.31,289.23 -99.42,78.69 -195.54,118.03 -288.27,118.03 -57.21,0 -113.11,-22.21 -167.8,-66.74 -54.69,-44.5 -98.58,-102.01 -131.71,-172.44 -33.13,-70.46 -49.75,-142.79 -49.75,-216.93 0,-100.54 36.26,-216.56 108.81,-347.98 72.41,-131.45 177.45,-260.39 314.98,-386.92 137.5,-126.5 298.67,-233.43 483.42,-320.78z"/>
   <path class="fil0" d="M5327.68 4405.49c0,0 -564.98,-402.89 -931.73,179.72 0,0 -184.65,331.66 -673.65,39.55 0,0 789.76,778.5 915.38,267.22 0,0 25.09,-220.48 220,-320.82 0,0 -191.58,-8.83 -388.94,221.65 0,0 136.28,-636.98 858.94,-387.32z"/>
   <path class="fil0" d="M5653.26 4975.05c-496.94,-50.02 -389.72,344.4 -389.72,344.4 93.81,456.98 -307.95,474.68 -307.95,474.68 653.44,232.89 534.31,-541.56 534.31,-541.56 -50.52,153.43 -101.78,143.23 -101.78,143.23 -97.57,-380.04 265.14,-420.75 265.14,-420.75z"/>
   <path class="fil0" d="M5102.47 5228.58c0,0 9.68,-200.57 44.29,-263.8 0,0 -124.34,228.84 -210.38,227.7 0,0 -128.88,-377.35 156.6,-515.09 0,0 237.9,-100.01 460.15,70.22 0,0 -278.05,-307.36 -581.46,-135.63 0,0 -253.44,101.64 -181.43,629.08 0,0 -77.79,116.06 -386.25,51.59 0,0 632.99,397.53 698.48,-64.07z"/>
   <path class="fil0" d="M9569.99 3962.72c0,0 -1285.69,-519.01 -2125.73,314.66l590.24 -610.85c0,0 139.88,-144.23 361.93,-147.27 0,0 1188.05,-136.54 1417.34,-302.45 0,0 -158.79,207.4 -425.61,314.02 0,0 917.84,189.07 813.88,-1381.51 0,0 -111.67,812.49 -1214.22,1125.61 0,0 -651.89,178.32 -763.12,56.04 0,0 966.13,-64.71 1466.13,-1112.97 0,0 61.22,396.23 -528.32,888.64 0,0 1299.11,-646.81 556.44,-1883.96 0,0 12.35,628.58 -263.42,1042.6 0,0 -8.71,-201.94 -130.2,-327.27 0,0 150.08,676.89 -470.8,1043.14 0,0 -354.74,238.71 -1012.68,243.42 0,0 254.64,95.99 2.01,316.84 0,0 -123.4,135.36 -166.32,232.62 0,0 124.01,-437.68 -177.48,-746.85 0,0 164.17,467.92 -249.3,833.67 0,0 -117.95,94.55 -245.15,254.54 -20.02,-36.57 -43.32,-73.58 -70.37,-111.01 -45.7,-63.2 -102.11,-127.57 -170.89,-192.58 283.37,-516.6 8.71,-814.26 8.71,-814.26 52.37,321.21 -141.8,527.87 -254.91,618.54 -113.18,-90.67 -307.35,-297.33 -254.98,-618.54 0,0 -274.65,297.66 8.71,814.26 -68.71,65.01 -125.18,129.38 -170.89,192.58 -27.08,37.43 -50.38,74.44 -70.33,111.01 -127.24,-159.99 -245.19,-254.54 -245.19,-254.54 -413.43,-365.75 -249.26,-833.67 -249.26,-833.67 -301.46,309.17 -177.52,746.85 -177.52,746.85 -42.92,-97.26 -166.32,-232.62 -166.32,-232.62 -252.66,-220.85 1.99,-316.84 1.99,-316.84 -657.92,-4.71 -1012.65,-243.42 -1012.65,-243.42 -620.88,-366.25 -470.81,-1043.14 -470.81,-1043.14 -121.49,125.33 -130.2,327.27 -130.2,327.27 -275.79,-414.02 -263.42,-1042.6 -263.42,-1042.6 -742.67,1237.15 556.44,1883.96 556.44,1883.96 -589.53,-492.41 -528.35,-888.64 -528.35,-888.64 500.07,1048.26 1466.16,1112.97 1466.16,1112.97 -111.22,122.28 -763.15,-56.04 -763.15,-56.04 -1102.55,-313.12 -1214.18,-1125.61 -1214.18,-1125.61 -103.96,1570.58 813.94,1381.51 813.94,1381.51 -266.89,-106.62 -425.64,-314.02 -425.64,-314.02 229.25,165.91 1417.3,302.45 1417.3,302.45 222.08,3.04 361.9,147.27 361.9,147.27l590.24 610.85c-840,-833.67 -2125.69,-314.66 -2125.69,-314.66 -413.36,142.96 -574.17,-1.97 -574.17,-1.97 155.53,242.69 543.49,361.66 543.49,361.66 789.29,282.04 1106.83,-134.99 1106.83,-134.99 -365.97,186.38 -808.06,-90.94 -808.06,-90.94 1006.36,-586.42 1880.27,371.74 1880.27,371.74 774.93,719.41 364.49,1218.91 364.49,1218.91 445.99,-456.88 411.31,-902.11 258.54,-1238.62 25.03,-39.11 51.53,-72.67 76.62,-100.67 62.23,-69.42 115.67,-104.55 115.67,-104.55 31.38,-31.55 60.67,-62.56 88.22,-93.08 27.48,30.52 56.77,61.53 88.09,93.08 0,0 53.48,35.13 115.73,104.55 25.09,28 51.6,61.56 76.62,100.67 -152.76,336.51 -187.41,781.74 258.54,1238.62 0,0 -410.43,-499.5 364.49,-1218.91 0,0 873.91,-958.16 1880.31,-371.74 0,0 -442.12,277.32 -808.13,90.94 0,0 317.58,417.03 1106.86,134.99 0,0 387.97,-118.97 543.49,-361.66 0,0 -160.8,144.93 -574.16,1.97z"/>
   <path class="fil0" d="M8640.21 4585.21c-366.67,-582.61 -931.66,-179.72 -931.66,-179.72 722.7,-249.66 858.95,387.32 858.95,387.32 -197.37,-230.48 -388.98,-221.65 -388.98,-221.65 194.98,100.34 220.03,320.82 220.03,320.82 125.59,511.28 915.38,-267.22 915.38,-267.22 -489,292.11 -673.72,-39.55 -673.72,-39.55z"/>
   <path class="fil0" d="M7772.69 5319.45c0,0 107.23,-394.42 -389.71,-344.4 0,0 362.71,40.71 265.13,420.75 0,0 -51.25,10.2 -101.74,-143.23 0,0 -119.1,774.45 534.24,541.56 0,0 -401.72,-17.7 -307.92,-474.68z"/>
   <path class="fil0" d="M8245.99 5241.06c72.01,-527.44 -181.42,-629.08 -181.42,-629.08 -303.45,-171.73 -581.46,135.63 -581.46,135.63 222.25,-170.23 460.18,-70.22 460.18,-70.22 285.48,137.74 156.53,515.09 156.53,515.09 -86,1.14 -210.35,-227.7 -210.35,-227.7 34.61,63.23 44.26,263.8 44.26,263.8 65.52,461.6 698.51,64.07 698.51,64.07 -308.49,64.47 -386.25,-51.59 -386.25,-51.59z"/>
   <path class="fil0" d="M3963.79 4080.09c-0.3,0.1 -0.64,0.2 -0.91,0.3 0.37,0.13 0.74,0.27 1.11,0.43 -0.1,-0.23 -0.13,-0.53 -0.2,-0.73z"/>
   <path class="fil0" d="M9367.92 3614.14c-43.19,-8.83 -75.34,-44.8 -79.28,-88.42 -1.95,-21.82 3.36,-42.93 14.26,-60.69 -45.54,9.26 -94.85,18.73 -148.22,28.43 -2.09,80.06 -7.77,159.22 -16.95,237.38 162.18,28.4 293.01,65.71 375.08,92.34 4.98,-66.48 7.77,-133.56 8.27,-201.21 -87.61,5.09 -147.62,-6.66 -153.16,-7.83z"/>
   <path class="fil0" d="M8926.84 4494.15c-19.34,42.89 -39.69,85.14 -61.18,126.83 2.56,0.67 5.15,1.44 7.8,2.04 104.03,26.16 238.54,-7.49 389.05,-97.39 34.98,-20.88 78.2,-18.1 109.84,4.61 6.4,-19.3 12.55,-38.77 18.54,-58.28 -102.59,22.05 -201.44,33.33 -295.75,33.69 -57.81,0.31 -113.98,-3.61 -168.3,-11.5z"/>
   <path class="fil0" d="M3881.56 3493.46c-53.35,-9.7 -102.69,-19.17 -148.23,-28.43 10.9,17.76 16.22,38.87 14.26,60.69 -3.93,43.62 -36.08,79.59 -79.24,88.42 -5.58,1.17 -65.58,12.92 -153.2,7.83 0.57,67.65 3.3,134.73 8.24,201.21 82.1,-26.63 212.94,-63.94 375.12,-92.34 -9.18,-78.16 -14.87,-157.32 -16.95,-237.38z"/>
   <path class="fil0" d="M3988.98 2677.09c323.29,-1085.22 1333.29,-1876.9 2529.17,-1876.9 1195.82,0 2205.81,791.68 2529.1,1876.9 88.32,-106.82 147.11,-233.12 175.57,-377.79 -485.91,-998.74 -1514.43,-1687.61 -2704.67,-1687.61 -1190.3,0 -2218.83,688.87 -2704.73,1687.61 28.45,144.67 87.21,270.97 175.56,377.79z"/>
   <path class="fil0" d="M9082.16 4935.77c-198.67,144.43 -360.18,215.63 -490.28,215.63 -28.15,0 -54.79,-3.32 -80.05,-9.91 -16.92,19.31 -34.1,38.45 -51.59,57.35 39.48,0.23 89.26,-4.38 151.48,-17.37 47.26,-9.93 94.92,15.36 113.08,59.82 18.16,44.63 1.62,95.79 -39.25,121.35 -4.07,2.58 -101.2,63.27 -225.85,112.05 -106.32,41.62 -201.16,62.43 -283.63,62.43 -29.57,0 -57.52,-2.75 -83.82,-8.03 -47.76,35.39 -96.7,69.15 -146.85,101.24 60.85,43.89 134.27,50.15 140.02,50.61 47.83,1.58 87.08,36.61 94.61,83.68 7.5,47.14 -20.48,92.91 -65.75,109.1 -92.76,33.06 -177.35,49.55 -253.23,49.55 -99.08,0 -183.44,-28.2 -252.19,-84.51 -6.59,-5.42 -13.01,-11.11 -19.27,-17 -327.42,144.94 -689.96,225.57 -1071.44,225.57 -381.54,0 -744.08,-80.63 -1071.54,-225.57 -6.22,5.89 -12.65,11.58 -19.31,17 -68.68,56.31 -153.03,84.51 -252.12,84.51 -75.87,0 -160.4,-16.49 -253.26,-49.55 -45.17,-16.19 -73.22,-61.96 -65.72,-109.1 7.53,-47.07 46.79,-82.1 94.61,-83.68 5.75,-0.46 79.18,-6.72 140.02,-50.61 -50.15,-32.09 -99.08,-65.85 -146.85,-101.24 -26.3,5.28 -54.31,8.03 -83.88,8.03 -82.47,0 -177.25,-20.81 -283.6,-62.43 -124.65,-48.78 -221.75,-109.47 -225.82,-112.05 -40.86,-25.56 -57.41,-76.72 -39.25,-121.35 18.16,-44.46 65.76,-69.75 113.08,-59.82 62.26,12.99 112,17.6 151.49,17.37 -17.49,-18.9 -34.68,-38.04 -51.6,-57.35 -25.26,6.59 -51.89,9.91 -80.05,9.91 -130.09,0 -291.64,-71.2 -490.28,-215.63 -75.27,-54.77 -143.21,-110.97 -195.54,-156.68 459.97,1062.85 1522.37,1807.19 2759.62,1807.19 1237.19,0 2299.58,-744.34 2759.56,-1807.19 -52.34,45.71 -120.28,101.91 -195.55,156.68z"/>
   <path class="fil0" d="M9072.41 4080.09c-0.1,0.4 -0.2,0.87 -0.3,1.27 0.63,-0.23 1.24,-0.47 1.88,-0.7 -0.51,-0.17 -1.08,-0.4 -1.58,-0.57z"/>
   <path class="fil0" d="M3773.73 4525.63c150.48,89.9 285.01,123.55 389.07,97.39 2.63,-0.6 5.22,-1.37 7.77,-2.04 -21.49,-41.69 -41.9,-83.94 -61.18,-126.83 -54.31,7.82 -110.48,11.74 -168.3,11.5 -94.31,-0.36 -193.16,-11.64 -295.74,-33.69 5.98,19.51 12.14,38.98 18.53,58.28 31.68,-22.71 74.87,-25.49 109.85,-4.61z"/>
   <path class="fil0" d="M1861.21 7867.99l168.57 277.72 -23.07 17.6c-16.55,-16.89 -30.21,-25.36 -40.8,-25.36 -10.66,0 -40.57,15.59 -89.64,46.84 -101.74,64.67 -187.34,108.1 -256.86,130.65 -69.52,22.55 -152.19,33.75 -248.01,33.75 -191.05,0 -347.81,-49.78 -470.27,-149.28 -72.15,-57.94 -128.92,-129.84 -170.36,-215.76 -47.89,-98.23 -71.84,-206.56 -71.84,-325.06 0,-161.36 42.85,-301.54 128.65,-420.65 128.95,-178.92 323.83,-268.52 584.72,-268.52 95.83,0 178.03,11.14 246.67,33.32 68.62,22.08 154.42,65.71 257.3,130.78 49.07,30.58 78.98,45.87 89.64,45.87 10.59,0 24.25,-8.46 40.8,-25.36l23.07 17.47 -168.57 278.22 -23.95 -17.5c1.14,-10.37 1.75,-19.13 1.75,-26.16 0,-18.94 -7.44,-36.47 -22.17,-53.03 -14.83,-16.53 -41.17,-36.47 -78.97,-59.85 -104.7,-64.77 -215.63,-97.23 -332.74,-97.23 -138.4,0 -248.76,37.98 -330.99,114.09 -97,89.03 -145.47,205.42 -145.47,349.02 0,143.76 48.47,260.02 145.47,349.15 82.23,75.98 192.59,114.02 330.99,114.02 117.11,0 228.04,-32.45 332.74,-97.59 37.8,-23.39 64.14,-43.5 78.97,-59.99 14.73,-16.66 22.17,-34.36 22.17,-53.2 0,-7.12 -0.61,-15.59 -1.75,-25.42l23.95 -18.54z"/>
   <path class="fil0" d="M2749.85 7416.1c-102.49,0 -186,36.09 -250.58,108.33 -59.83,67.65 -89.73,152.63 -89.73,254.73 0,101.48 29.9,186.12 89.73,253.84 64.58,72.87 148.4,109.3 251.45,109.3 102.45,0 185.96,-36.43 250.51,-109.3 59.83,-67.01 89.73,-150.02 89.73,-248.92 0,-107.43 -29.9,-193.91 -89.73,-259.65 -65.15,-70.96 -148.94,-107.06 -251.38,-108.33zm-0.91 -206.93c158.04,0 289.75,44.26 395.16,132.69 126.06,106.82 189.13,255.44 189.13,446.14 0,178.89 -63.07,321.71 -189.13,428.41 -104.2,88.52 -235.33,132.78 -393.38,132.78 -158.08,0 -289.22,-44.26 -393.42,-132.78 -126.66,-106.7 -190.03,-252.47 -190.03,-437.25 0,-186.72 63.37,-332.52 190.03,-437.3 104.81,-86.56 235.34,-130.79 391.64,-132.69z"/>
   <path class="fil0" d="M3758.22 7605.39l0 620.02c0,20.04 4.31,35.76 12.88,46.73 8.58,11.08 23.21,19.84 43.93,26.33l0 27.34 -330.08 0 0 -27.34c20.72,-5.88 35.35,-14.28 43.92,-25.39 8.58,-11.11 12.85,-26.66 12.85,-46.84l0 -894.05c0,-20.21 -4.14,-35.57 -12.44,-45.94 -8.28,-10.37 -23.01,-19.24 -44.33,-26.33l0 -27.37 381.67 0 0 27.37c-26.03,7.09 -39.08,19.84 -39.08,38.01 0,15.72 9.52,33.89 28.42,54.67l533.13 581.74 0 -602.15c0,-20.21 -4.13,-35.67 -12.41,-46.41 -8.31,-10.74 -23.07,-19.37 -44.36,-25.86l0 -27.37 330.05 0 0 27.37c-21.26,6.49 -36.06,15.12 -44.33,25.86 -8.31,10.74 -12.45,26.07 -12.45,46.27l0 893.22c0,20.18 4.14,35.63 12.45,46.37 8.27,10.74 23.07,19.74 44.33,26.83l0 27.34 -355.92 0 0 -27.34c26.07,-5.82 39.05,-17.69 39.05,-35.76 0,-9.1 -3.53,-18.47 -10.66,-28.07 -7.09,-9.7 -23.37,-28.84 -48.8,-57.14l-527.82 -572.11z"/>
   <path class="fil0" d="M5791.89 7331.12l-119.77 254.8 -21.32 -12.75c0,-21.51 -6.15,-38.37 -18.6,-50.72 -33.7,-33.19 -83.41,-60.45 -149.06,-81.93 -65.66,-21.48 -132.19,-32.22 -199.65,-32.22 -57.38,0 -108.27,8.7 -152.6,26.33 -63.87,25.36 -95.82,62.2 -95.82,110.31 0,31.91 15.33,54.46 46.11,67.78 30.74,13.31 90.2,23.99 178.36,31.78l140.22 11.65c122.42,10.5 215.59,36.46 279.46,78.15 35.52,23.39 64.81,54.63 87.85,93.68 28.96,48.78 43.53,103.78 43.53,165 0,111.21 -45.65,199.14 -136.69,263.57 -86.98,61.76 -204.7,92.64 -353.12,92.64 -149.68,0 -294.3,-34.79 -433.95,-104.41 -9.45,-4.55 -17.42,-6.89 -23.91,-6.89 -11.88,0 -22.81,7.92 -32.86,23.52l-22.17 -9.84 102.05 -267.42 22.2 9.8c0,3.89 0,6.5 0,7.8 0,16.86 5.88,31.25 17.72,42.96 29.6,28.7 80.76,53.43 153.51,74.71 72.71,21.11 144.62,31.61 215.62,31.61 62.66,0 118.9,-9.06 168.58,-27.23 61.51,-22.25 92.29,-57.98 92.29,-107.43 0,-39.65 -21.29,-67.41 -63.87,-83 -28.42,-10.38 -79.58,-19.08 -153.51,-26.27l-139.34 -12.78c-75.14,-6.49 -132.52,-14.99 -172.14,-25.36 -39.62,-10.4 -74.23,-25.63 -103.83,-45.83 -37.8,-26.03 -67.44,-61.46 -88.69,-106.43 -21.29,-44.86 -31.95,-94.08 -31.95,-147.41 0,-119.67 46.75,-211.14 140.22,-274.34 85.16,-57.18 190.43,-85.78 315.85,-85.78 68.01,0 131.44,8.26 190.33,24.89 58.86,16.56 129.13,45.7 210.75,87.39 24.22,12.24 41.11,18.53 50.56,18.53 9.45,0 21.59,-7.19 36.39,-21.48l21.25 12.62z"/>
   <path class="fil0" d="M6997.77 7332.19l0 578.79c0,132.09 -23.68,229.08 -71.03,290.81 -76.29,98.29 -220,147.4 -431.22,147.4 -141.37,0 -255.52,-23.68 -342.46,-71.26 -62.73,-34.46 -105.58,-83.54 -128.65,-147.34 -21.29,-58.62 -31.96,-131.78 -31.96,-219.61l0 -578.79c0,-20.21 -4.17,-35.57 -12.41,-45.94 -8.3,-10.37 -23.1,-19.24 -44.36,-26.33l0 -27.37 351.37 0 0 27.37c-21.56,6.49 -36.42,15.12 -44.6,25.86 -8.14,10.74 -12.24,26.2 -12.24,46.41l0 526.03c0,61.23 4.91,108.13 14.67,140.59 9.78,32.55 26.77,59.25 51.02,79.99 48.46,42.36 118.59,63.5 210.28,63.5 91.68,0 161.81,-21.14 210.28,-63.5 23.71,-20.74 40.22,-47.44 49.71,-79.99 9.45,-32.46 14.19,-79.36 14.19,-140.59l0 -526.03c0,-20.21 -4,-35.57 -11.97,-45.94 -7.97,-10.37 -22.91,-19.24 -44.84,-26.33l0 -27.37 330.99 0 0 27.37c-21.29,6.49 -36.05,15.12 -44.36,25.86 -8.31,10.74 -12.41,26.2 -12.41,46.41z"/>
   <path class="fil0" d="M7504.4 8127.65l556.33 0c18.91,0 33.13,-4.45 42.59,-13.45 9.45,-8.94 17.42,-25.36 23.94,-48.98l23.98 0 0 323.05 -23.98 0c-5.92,-23.48 -13.75,-39.64 -23.47,-48.84 -9.79,-9.1 -24.15,-13.62 -43.06,-13.62l-850.93 0 0 -27.34c20.72,-5.88 35.38,-14.28 43.96,-25.39 8.57,-11.11 12.88,-26.66 12.88,-46.84l0 -894.05c0,-20.21 -4.17,-35.57 -12.45,-45.94 -8.27,-10.37 -23.07,-19.24 -44.39,-26.33l0 -27.37 351.37 0 0 27.37c-21.26,6.49 -36.05,15.12 -44.36,25.86 -8.28,10.74 -12.41,26.2 -12.41,46.41l0 795.46z"/>
   <path class="fil0" d="M8801.66 7430.68l0 794.59c0,20.18 4.13,35.63 12.41,46.37 8.24,10.74 23.04,19.74 44.36,26.83l0 27.34 -351.37 0 0 -27.34c20.68,-5.88 35.31,-14.28 43.89,-25.39 8.58,-11.11 12.88,-26.66 12.88,-46.84l0 -795.56 -292.82 0c-18.9,0 -33.26,4.62 -43.01,13.95 -9.79,9.34 -17.63,25.5 -23.51,48.55l-23.95 0 0 -323.06 23.95 0c5.28,22.79 12.88,38.81 22.63,48.28 9.76,9.44 24.08,14.15 43.09,14.15l824.19 0c18.91,0 33.27,-4.48 43.06,-13.71 9.78,-9.07 17.59,-25.33 23.54,-48.72l23.95 0 0 323.06 -23.95 0c-5.95,-23.05 -13.76,-39.21 -23.54,-48.55 -9.76,-9.33 -24.12,-13.95 -43.02,-13.95l-292.78 0z"/>
   <path class="fil0" d="M9581.56 7332.05l0 893.22c0,20.18 4.13,35.63 12.41,46.37 8.31,10.74 23.1,19.74 44.36,26.83l0 27.34 -351.37 0 0 -27.34c20.72,-5.88 35.38,-14.28 43.96,-25.39 8.57,-11.11 12.81,-26.66 12.81,-46.84l0 -894.05c0,-20.21 -4.1,-35.57 -12.41,-45.94 -8.31,-10.37 -23.04,-19.24 -44.36,-26.33l0 -27.37 351.37 0 0 27.37c-21.26,6.49 -36.05,15.12 -44.36,25.86 -8.28,10.74 -12.41,26.07 -12.41,46.27z"/>
   <path class="fil0" d="M10086.44 7605.39l0 620.02c0,20.04 4.27,35.76 12.84,46.73 8.58,11.08 23.21,19.84 43.93,26.33l0 27.34 -330.05 0 0 -27.34c20.69,-5.88 35.32,-14.28 43.89,-25.39 8.58,-11.11 12.88,-26.66 12.88,-46.84l0 -894.05c0,-20.21 -4.17,-35.57 -12.41,-45.94 -8.3,-10.37 -23.07,-19.24 -44.36,-26.33l0 -27.37 381.64 0 0 27.37c-25.99,7.09 -39.01,19.84 -39.01,38.01 0,15.72 9.45,33.89 28.39,54.67l533.13 581.74 0 -602.15c0,-20.21 -4.14,-35.67 -12.45,-46.41 -8.27,-10.74 -23.07,-19.37 -44.36,-25.86l0 -27.37 330.05 0 0 27.37c-21.26,6.49 -36.06,15.12 -44.33,25.86 -8.28,10.74 -12.45,26.07 -12.45,46.27l0 893.22c0,20.18 4.17,35.63 12.45,46.37 8.27,10.74 23.07,19.74 44.33,26.83l0 27.34 -355.92 0 0 -27.34c26.07,-5.82 39.09,-17.69 39.09,-35.76 0,-9.1 -3.57,-18.47 -10.67,-28.07 -7.13,-9.7 -23.4,-28.84 -48.83,-57.14l-527.78 -572.11z"/>
   <path class="fil0" d="M12060.71 7904.16l-226.29 0c-18.97,0 -33.33,4.55 -43.05,13.68 -9.75,9.07 -17.56,25.36 -23.51,48.75l-23.95 0 0 -289.94 23.95 0c5.95,23.16 13.76,39.35 23.51,48.65 9.72,9.23 24.08,13.85 43.05,13.85l472.96 0 0 28.3c-20.75,6.5 -35.35,15.93 -44.03,28.31 -8.54,12.41 -12.81,30.01 -12.81,52.79l0 230.25c0,20.17 4.27,35.9 12.81,46.87 8.68,11.08 23.28,19.94 44.03,26.43l0 22.45c-191.75,116.46 -382.79,174.64 -573.25,174.64 -164.44,0 -297.56,-42.62 -399.27,-127.8 -55.03,-46.84 -99.39,-104.78 -133.09,-173.7 -39.69,-82.07 -59.47,-169.53 -59.47,-262.64 0,-128.9 36.06,-243.36 108.27,-343.59 112.37,-154.84 278.62,-232.29 498.66,-232.29 96.36,0 206.48,23.38 330.11,70.22 49.01,18.2 77.7,27.37 86.01,27.37 10.09,0 21.82,-5.15 35.48,-15.66l21.36 12.72 -118.53 275.24 -21.26 -11.67c0,-2.58 0,-4.59 0,-5.89 0,-24.06 -21.82,-48.72 -65.62,-74.14 -81.02,-47.54 -167.86,-71.26 -260.66,-71.26 -107.02,0 -194.81,32.21 -263.42,96.68 -72.11,67.59 -108.17,158.72 -108.17,273.21 0,107.43 32.87,193.31 98.48,257.75 67.44,65.74 162.09,98.56 283.91,98.56 115.93,0 213.94,-23.72 293.79,-71.3l0 -166.84z"/>
   <path class="fil0" d="M5872.31 1520.27l0 -101.34c29.87,-26.36 60.07,-51.96 90.75,-76.65 30.64,-24.72 64.81,-51.52 102.48,-80.36 37.74,-28.84 76.62,-56.44 116.84,-82.8 40.16,-26.4 85.94,-53.57 137.3,-81.6 45.57,65.94 68.38,128.97 68.38,189.16 0,32.95 -7.07,69.59 -21.16,110 -14.09,40.38 -33.33,86.52 -57.78,138.45 -24.42,51.92 -54.89,116.99 -91.32,195.28 -97.81,215.09 -170.89,392.48 -219.33,532.19 -48.46,139.65 -72.71,234.67 -72.71,284.92 0,4.11 2.86,20.2 8.71,48.17 5.78,28.04 8.71,49.05 8.71,63.1 0,23.86 -6.86,36.64 -20.52,38.31 -13.69,1.64 -32.92,-3.28 -57.81,-14.85 -63.81,-31.32 -106.45,-60.96 -127.98,-89 -21.53,-28.03 -32.29,-64.27 -32.29,-108.8 0,-79.89 29.4,-203.95 88.19,-372.07 29.87,-84.88 64.61,-169.32 104.4,-253.43 39.75,-84.04 83.88,-169.09 132.35,-255.24 48.43,-86.12 94.24,-165.41 137.33,-237.97 -93.61,38.77 -191.82,90.26 -294.54,154.53z"/>
   <path class="fil0" d="M6635.37 2532.66c43.89,0 105.81,-29.61 185.75,-89.03 79.95,-59.28 150.35,-131.78 211.26,-217.5 60.91,-85.71 91.35,-166.91 91.35,-243.52 0,-69.26 -26.1,-103.82 -78.27,-103.82 -59.66,0 -152.86,53.1 -279.63,159.42 -76.25,64.3 -131.94,122.58 -167.13,174.91 -35.24,52.39 -52.83,111.48 -52.83,177.42 0,50.25 6.86,86.55 20.48,108.77 13.72,22.24 36.69,33.35 69.02,33.35zm608.87 -1311.52l129.29 7.39c53,3.31 88.82,6.66 107.46,9.9 18.63,3.32 27.95,10.34 27.95,21.05 0,9.06 -38.51,34.79 -115.57,77.22 -77.02,42.45 -141.26,79.09 -192.62,110.03 -51.32,30.92 -122.56,83.04 -213.74,156.35 -91.12,73.4 -181.83,161.12 -272.1,263.3 -18.26,21.44 -35.28,42.65 -50.99,63.67 -15.71,21.04 -29.63,41.05 -41.64,59.98 -12.01,18.94 -18.87,29.24 -20.48,30.88 88.62,-93.94 167.97,-163.8 237.96,-209.53 70.02,-45.74 143.55,-68.62 220.57,-68.62 80.38,0 143.72,24.12 190.13,72.36 46.45,48.18 69.62,114.32 69.62,198.37 0,93.97 -32.72,198.02 -98.17,312.14 -65.46,114.16 -147.93,210.55 -247.31,289.27 -99.43,78.69 -195.52,118.07 -288.31,118.07 -57.18,0 -113.08,-22.29 -167.74,-66.78 -54.68,-44.53 -98.64,-101.98 -131.77,-172.47 -33.13,-70.43 -49.68,-142.73 -49.68,-216.9 0,-100.54 36.19,-216.53 108.74,-348.01 72.48,-131.42 177.45,-260.39 315.05,-386.89 137.49,-126.47 298.6,-233.43 483.35,-320.78z"/>
   <path class="fil0" d="M5293.88 4377.65c0,0 -564.95,-402.88 -931.66,179.73 0,0 -184.68,331.65 -673.69,39.54 0,0 789.76,778.5 915.35,267.19 0,0 25.12,-220.45 220.07,-320.82 0,0 -191.62,-8.86 -388.95,221.65 0,0 136.22,-636.98 858.88,-387.29z"/>
   <path class="fil0" d="M5619.49 4947.21c-496.94,-50.08 -389.72,344.4 -389.72,344.4 93.81,456.98 -307.92,474.58 -307.92,474.58 653.38,232.89 534.24,-541.62 534.24,-541.62 -50.51,153.53 -101.7,143.29 -101.7,143.29 -97.64,-379.93 265.1,-420.65 265.1,-420.65z"/>
   <path class="fil0" d="M5068.73 5200.74c0,0 9.69,-200.57 44.3,-263.83 0,0 -124.38,228.87 -210.41,227.67 0,0 -128.92,-377.32 156.59,-515.03 0,0 237.93,-99.93 460.12,70.09 0,0 -278.02,-307.23 -581.4,-135.5 0,0 -253.5,101.61 -181.45,629.08 0,0 -77.8,116.06 -386.22,51.59 0,0 632.92,397.4 698.47,-64.07z"/>
   <path class="fil0" d="M9536.19 3934.85c0,0 -1285.66,-519.04 -2125.63,314.66l590.17 -610.85c0,0 139.89,-144.19 361.97,-147.24 0,0 1187.98,-136.6 1417.26,-302.48 0,0 -158.78,207.37 -425.6,313.99 0,0 917.9,189.13 813.94,-1381.51 0,0 -111.66,812.49 -1214.25,1125.6 0,0 -651.86,178.39 -763.15,56.08 0,0 966.16,-64.74 1466.17,-1112.93 0,0 61.21,396.19 -528.33,888.57 0,0 1299.15,-646.75 556.41,-1883.9 0,0 12.38,628.58 -263.35,1042.6 0,0 -8.78,-201.94 -130.2,-327.27 0,0 150.04,676.83 -470.84,1043.07 0,0 -354.77,238.78 -1012.68,243.47 0,0 254.64,95.95 2.05,316.79 0,0 -123.44,135.37 -166.32,232.66 0,0 123.94,-437.64 -177.52,-746.81 0,0 164.17,467.92 -249.29,833.66 0,0 -117.96,94.55 -245.2,254.51 -19.97,-36.54 -43.28,-73.61 -70.36,-111.05 -45.71,-63.2 -102.11,-127.57 -170.89,-192.5 283.4,-516.64 8.71,-814.3 8.71,-814.3 52.4,321.25 -141.77,527.84 -254.91,618.58 -113.18,-90.74 -307.35,-297.33 -254.91,-618.58 0,0 -274.72,297.66 8.64,814.3 -68.71,64.93 -125.12,129.3 -170.82,192.5 -27.05,37.44 -50.39,74.51 -70.37,111.05 -127.23,-159.96 -245.22,-254.51 -245.22,-254.51 -413.43,-365.74 -249.26,-833.66 -249.26,-833.66 -301.46,309.17 -177.52,746.81 -177.52,746.81 -42.92,-97.29 -166.29,-232.66 -166.29,-232.66 -252.66,-220.84 2.02,-316.79 2.02,-316.79 -657.95,-4.69 -1012.65,-243.47 -1012.65,-243.47 -620.91,-366.24 -470.87,-1043.07 -470.87,-1043.07 -121.49,125.33 -130.2,327.27 -130.2,327.27 -275.76,-414.02 -263.35,-1042.6 -263.35,-1042.6 -742.74,1237.15 556.37,1883.9 556.37,1883.9 -589.5,-492.38 -528.29,-888.57 -528.29,-888.57 500,1048.19 1466.17,1112.93 1466.17,1112.93 -111.29,122.31 -763.15,-56.08 -763.15,-56.08 -1102.59,-313.11 -1214.22,-1125.6 -1214.22,-1125.6 -103.96,1570.64 813.91,1381.51 813.91,1381.51 -266.89,-106.62 -425.61,-313.99 -425.61,-313.99 229.29,165.88 1417.3,302.48 1417.3,302.48 222.05,3.05 361.94,147.24 361.94,147.24l590.2 610.85c-839.97,-833.7 -2125.69,-314.66 -2125.69,-314.66 -413.36,142.93 -574.17,-1.97 -574.17,-1.97 155.49,242.73 543.53,361.63 543.53,361.63 789.22,282.07 1106.79,-135 1106.79,-135 -366.01,186.46 -808.09,-90.86 -808.09,-90.86 1006.39,-586.49 1880.34,371.7 1880.34,371.7 774.85,719.38 364.42,1218.88 364.42,1218.88 446.02,-456.85 411.31,-902.15 258.54,-1238.62 25.03,-39.05 51.53,-72.64 76.65,-100.61 62.26,-69.42 115.7,-104.61 115.7,-104.61 31.35,-31.52 60.68,-62.5 88.16,-93.05 27.48,30.55 56.81,61.53 88.15,93.05 0,0 53.45,35.19 115.7,104.61 25.06,27.97 51.63,61.56 76.66,100.61 -152.77,336.47 -187.48,781.77 258.54,1238.62 0,0 -410.44,-499.5 364.42,-1218.88 0,0 873.98,-958.19 1880.34,-371.7 0,0 -442.12,277.32 -808.09,90.86 0,0 317.57,417.07 1106.79,135 0,0 388.03,-118.9 543.56,-361.63 0,0 -160.84,144.9 -574.23,1.97z"/>
   <path class="fil0" d="M8606.48 4557.38c-366.71,-582.61 -931.66,-179.73 -931.66,-179.73 722.66,-249.69 858.87,387.29 858.87,387.29 -197.33,-230.51 -388.94,-221.65 -388.94,-221.65 194.94,100.37 220.07,320.82 220.07,320.82 125.59,511.31 915.34,-267.19 915.34,-267.19 -489.03,292.11 -673.68,-39.54 -673.68,-39.54z"/>
   <path class="fil0" d="M7738.93 5291.61c0,0 107.25,-394.48 -389.75,-344.4 0,0 362.7,40.72 265.17,420.65 0,0 -51.23,10.24 -101.75,-143.29 0,0 -119.13,774.51 534.28,541.62 0,0 -401.76,-17.6 -307.95,-474.58z"/>
   <path class="fil0" d="M8212.22 5213.22c72.01,-527.47 -181.45,-629.08 -181.45,-629.08 -303.38,-171.73 -581.43,135.5 -581.43,135.5 222.25,-170.02 460.14,-70.09 460.14,-70.09 285.52,137.71 156.6,515.03 156.6,515.03 -86.07,1.2 -210.41,-227.67 -210.41,-227.67 34.61,63.26 44.33,263.83 44.33,263.83 65.48,461.47 698.47,64.07 698.47,64.07 -308.45,64.47 -386.25,-51.59 -386.25,-51.59z"/>
   <path class="fil0" d="M3930.02 4052.19c-0.33,0.13 -0.6,0.23 -0.9,0.36 0.37,0.14 0.7,0.24 1.07,0.41 -0.03,-0.27 -0.1,-0.51 -0.17,-0.77z"/>
   <path class="fil0" d="M9334.11 3586.31c-43.15,-8.9 -75.34,-44.84 -79.2,-88.5 -2.02,-21.74 3.33,-42.85 14.22,-60.62 -45.57,9.23 -94.88,18.74 -148.19,28.4 -2.12,80.1 -7.83,159.26 -17.02,237.38 162.22,28.44 293.09,65.67 375.16,92.34 4.97,-66.51 7.7,-133.59 8.2,-201.18 -87.58,5.09 -147.62,-6.69 -153.17,-7.82z"/>
   <path class="fil0" d="M8893.04 4466.28c-19.27,42.89 -39.66,85.18 -61.18,126.7 2.62,0.83 5.21,1.57 7.84,2.14 104.02,26.23 238.56,-7.43 389.04,-97.33 34.94,-20.91 78.16,-18.13 109.88,4.59 6.32,-19.34 12.51,-38.75 18.47,-58.29 -102.52,22.02 -201.44,33.36 -295.68,33.73 -57.82,0.23 -114.05,-3.68 -168.37,-11.54z"/>
   <path class="fil0" d="M3847.76 3465.59c-53.31,-9.66 -102.62,-19.17 -148.23,-28.4 10.93,17.77 16.21,38.88 14.26,60.62 -3.87,43.66 -36.09,79.6 -79.21,88.5 -5.58,1.13 -65.58,12.84 -153.16,7.82 0.5,67.59 3.26,134.67 8.2,201.18 82.1,-26.67 212.94,-63.9 375.09,-92.34 -9.12,-78.12 -14.87,-157.28 -16.95,-237.38z"/>
   <path class="fil0" d="M3955.18 2649.22c323.36,-1085.22 1333.28,-1876.93 2529.17,-1876.93 1195.85,0 2205.84,791.71 2529.17,1876.93 88.28,-106.86 147.11,-233.15 175.5,-377.82 -485.91,-998.74 -1514.44,-1687.54 -2704.67,-1687.54 -1190.27,0 -2218.76,688.8 -2704.67,1687.54 28.39,144.67 87.21,270.96 175.5,377.82z"/>
   <path class="fil0" d="M9048.43 4907.87c-198.68,144.5 -360.26,215.69 -490.35,215.69 -28.12,0 -54.72,-3.31 -79.98,-9.97 -16.92,19.37 -34.17,38.51 -51.63,57.41 39.49,0.24 89.26,-4.38 151.45,-17.4 47.33,-9.9 94.92,15.36 113.11,59.86 18.17,44.63 1.62,95.72 -39.28,121.34 -4.04,2.58 -101.17,63.27 -225.78,111.98 -106.36,41.56 -201.17,62.5 -283.64,62.5 -29.56,0 -57.51,-2.74 -83.88,-8.03 -47.7,35.26 -96.67,69.15 -146.85,101.24 60.88,43.79 134.34,50.15 140.02,50.52 47.86,1.67 87.11,36.7 94.61,83.67 7.57,47.21 -20.48,93.01 -65.68,109.17 -92.83,33.09 -177.36,49.58 -253.3,49.58 -99.09,0 -183.44,-28.2 -252.12,-84.51 -6.63,-5.45 -13.08,-11.1 -19.27,-16.99 -327.43,144.93 -690,225.53 -1071.51,225.53 -381.48,0 -744.08,-80.6 -1071.51,-225.53 -6.22,5.89 -12.65,11.54 -19.27,16.99 -68.68,56.31 -153.07,84.51 -252.12,84.51 -75.91,0 -160.47,-16.49 -253.3,-49.58 -45.2,-16.16 -73.22,-61.96 -65.68,-109.17 7.5,-46.97 46.78,-82 94.54,-83.67 5.75,-0.37 79.17,-6.73 140.02,-50.52 -50.08,-32.09 -99.09,-65.98 -146.81,-101.24 -26.34,5.29 -54.29,8.03 -83.85,8.03 -82.44,0 -177.25,-20.81 -283.6,-62.5 -124.65,-48.71 -221.79,-109.4 -225.89,-111.98 -40.8,-25.62 -57.38,-76.71 -39.18,-121.34 18.13,-44.5 65.75,-69.76 113.07,-59.86 62.19,13.02 111.94,17.47 151.42,17.4 -17.42,-18.9 -34.64,-38.04 -51.59,-57.41 -25.26,6.66 -51.86,9.97 -79.98,9.97 -130.16,0 -291.64,-71.19 -490.35,-215.69 -75.24,-54.7 -143.21,-111.04 -195.51,-156.71 460.01,1062.94 1522.4,1807.21 2759.59,1807.21 1237.19,0 2299.61,-744.27 2759.56,-1807.21 -52.34,45.67 -120.21,102.01 -195.48,156.71z"/>
   <path class="fil0" d="M9038.67 4052.19c-0.13,0.46 -0.23,0.87 -0.37,1.33 0.64,-0.23 1.32,-0.46 1.89,-0.73 -0.51,-0.2 -1.01,-0.37 -1.52,-0.6z"/>
   <path class="fil0" d="M3739.96 4497.79c150.48,89.9 284.98,123.56 389.04,97.33 2.66,-0.57 5.25,-1.31 7.81,-2.14 -21.5,-41.59 -41.88,-83.85 -61.15,-126.74 -54.32,7.9 -110.49,11.78 -168.34,11.58 -94.31,-0.37 -193.19,-11.71 -295.71,-33.73 5.99,19.54 12.14,38.95 18.5,58.29 31.65,-22.72 74.84,-25.5 109.85,-4.59z"/>
  </g>
 </g>
</svg>
